<?xml version="1.0" encoding="UTF-8" standalone="no"?>
<!DOCTYPE svg PUBLIC "-//W3C//DTD SVG 1.1//EN"
 "http://www.w3.org/Graphics/SVG/1.1/DTD/svg11.dtd">
<!-- Generated by graphviz version 2.38.0 (20140413.2041)
 -->
<!-- Title: Clean_BaseLib.BaseClass_Packet Pages: 1 -->
<svg width="140pt" height="309pt"
 viewBox="0.00 0.00 140.00 309.00" xmlns="http://www.w3.org/2000/svg" xmlns:xlink="http://www.w3.org/1999/xlink">
<g id="graph0" class="graph" transform="scale(1 1) rotate(0) translate(4 305)">
<title>Clean_BaseLib.BaseClass_Packet</title>
<polygon fill="white" stroke="none" points="-4,4 -4,-305 136,-305 136,4 -4,4"/>
<!-- Node0 -->
<g id="node1" class="node"><title>Node0</title>
<g id="a_node1"><a xlink:title="BaseClass_Packet is the abstract packet class implementing the ISerialValueCollection interface.">
<polygon fill="#bfbfbf" stroke="black" points="0,-0.5 0,-112.5 132,-112.5 132,-0.5 0,-0.5"/>
<text text-anchor="start" x="8" y="-100.5" font-family="Helvetica,sans-Serif" font-size="10.00">Clean_BaseLib.BaseClass</text>
<text text-anchor="middle" x="66" y="-89.5" font-family="Helvetica,sans-Serif" font-size="10.00">_Packet</text>
<polyline fill="none" stroke="black" points="0,-82.5 132,-82.5 "/>
<text text-anchor="start" x="8" y="-70.5" font-family="Helvetica,sans-Serif" font-size="10.00">+ Header</text>
<text text-anchor="start" x="8" y="-59.5" font-family="Helvetica,sans-Serif" font-size="10.00">+ Payload</text>
<text text-anchor="start" x="8" y="-48.5" font-family="Helvetica,sans-Serif" font-size="10.00">+ SerialValueList</text>
<text text-anchor="start" x="8" y="-37.5" font-family="Helvetica,sans-Serif" font-size="10.00"># packetHeader</text>
<text text-anchor="start" x="8" y="-26.5" font-family="Helvetica,sans-Serif" font-size="10.00"># packetPayload</text>
<polyline fill="none" stroke="black" points="0,-19.5 132,-19.5 "/>
<text text-anchor="start" x="8" y="-7.5" font-family="Helvetica,sans-Serif" font-size="10.00">+ GetObjectData()</text>
</a>
</g>
</g>
<!-- Node1 -->
<g id="node2" class="node"><title>Node1</title>
<g id="a_node2"><a xlink:href="../../df/dac/interface_clean___base_lib_1_1_i_serial_value_collection.html" target="_top" xlink:title="The interface for packets, headers, and payloads">
<polygon fill="white" stroke="black" points="10.5,-149.5 10.5,-206.5 121.5,-206.5 121.5,-149.5 10.5,-149.5"/>
<text text-anchor="middle" x="66" y="-194.5" font-family="Helvetica,sans-Serif" font-size="10.00">ISerialValueCollection</text>
<polyline fill="none" stroke="black" points="10.5,-187.5 121.5,-187.5 "/>
<text text-anchor="start" x="18.5" y="-175.5" font-family="Helvetica,sans-Serif" font-size="10.00">+ SerialValueList</text>
<polyline fill="none" stroke="black" points="10.5,-168.5 121.5,-168.5 "/>
<text text-anchor="middle" x="66" y="-156.5" font-family="Helvetica,sans-Serif" font-size="10.00"> </text>
</a>
</g>
</g>
<!-- Node1&#45;&gt;Node0 -->
<g id="edge1" class="edge"><title>Node1&#45;&gt;Node0</title>
<path fill="none" stroke="midnightblue" d="M66,-139.108C66,-130.748 66,-121.725 66,-112.834"/>
<polygon fill="none" stroke="midnightblue" points="62.5001,-139.284 66,-149.284 69.5001,-139.284 62.5001,-139.284"/>
</g>
<!-- Node2 -->
<g id="node3" class="node"><title>Node2</title>
<g id="a_node3"><a xlink:title=" ">
<polygon fill="white" stroke="#bfbfbf" points="31.5,-243.5 31.5,-300.5 100.5,-300.5 100.5,-243.5 31.5,-243.5"/>
<text text-anchor="middle" x="66" y="-288.5" font-family="Helvetica,sans-Serif" font-size="10.00">ISerializable</text>
<polyline fill="none" stroke="#bfbfbf" points="31.5,-281.5 100.5,-281.5 "/>
<text text-anchor="middle" x="66" y="-269.5" font-family="Helvetica,sans-Serif" font-size="10.00"> </text>
<polyline fill="none" stroke="#bfbfbf" points="31.5,-262.5 100.5,-262.5 "/>
<text text-anchor="middle" x="66" y="-250.5" font-family="Helvetica,sans-Serif" font-size="10.00"> </text>
</a>
</g>
</g>
<!-- Node2&#45;&gt;Node1 -->
<g id="edge2" class="edge"><title>Node2&#45;&gt;Node1</title>
<path fill="none" stroke="midnightblue" d="M66,-233.209C66,-224.293 66,-214.951 66,-206.584"/>
<polygon fill="none" stroke="midnightblue" points="62.5001,-233.397 66,-243.397 69.5001,-233.397 62.5001,-233.397"/>
</g>
</g>
</svg>
