<?xml version="1.0" encoding="UTF-8" standalone="no"?>
<!DOCTYPE svg PUBLIC "-//W3C//DTD SVG 1.1//EN"
 "http://www.w3.org/Graphics/SVG/1.1/DTD/svg11.dtd">
<!-- Generated by graphviz version 2.38.0 (20140413.2041)
 -->
<!-- Title: Clean_BaseLib.BaseClass_Packet Pages: 1 -->
<svg width="308pt" height="405pt"
 viewBox="0.00 0.00 307.80 405.00" xmlns="http://www.w3.org/2000/svg" xmlns:xlink="http://www.w3.org/1999/xlink">
<g id="graph0" class="graph" transform="scale(1 1) rotate(0) translate(4 401)">
<title>Clean_BaseLib.BaseClass_Packet</title>
<polygon fill="white" stroke="none" points="-4,4 -4,-401 303.799,-401 303.799,4 -4,4"/>
<!-- Node3 -->
<g id="node1" class="node"><title>Node3</title>
<g id="a_node1"><a xlink:title="BaseClass_Packet is the abstract packet class implementing the ISerialValueCollection interface.">
<polygon fill="#bfbfbf" stroke="black" points="17.7987,-0.5 17.7987,-90.5 149.799,-90.5 149.799,-0.5 17.7987,-0.5"/>
<text text-anchor="start" x="25.7987" y="-78.5" font-family="Helvetica,sans-Serif" font-size="10.00">Clean_BaseLib.BaseClass</text>
<text text-anchor="middle" x="83.7987" y="-67.5" font-family="Helvetica,sans-Serif" font-size="10.00">_Packet</text>
<polyline fill="none" stroke="black" points="17.7987,-60.5 149.799,-60.5 "/>
<text text-anchor="start" x="25.7987" y="-48.5" font-family="Helvetica,sans-Serif" font-size="10.00">+ Header</text>
<text text-anchor="start" x="25.7987" y="-37.5" font-family="Helvetica,sans-Serif" font-size="10.00">+ Payload</text>
<text text-anchor="start" x="25.7987" y="-26.5" font-family="Helvetica,sans-Serif" font-size="10.00">+ SerialValueList</text>
<polyline fill="none" stroke="black" points="17.7987,-19.5 149.799,-19.5 "/>
<text text-anchor="start" x="25.7987" y="-7.5" font-family="Helvetica,sans-Serif" font-size="10.00">+ GetObjectData()</text>
</a>
</g>
</g>
<!-- Node4 -->
<g id="node2" class="node"><title>Node4</title>
<g id="a_node2"><a xlink:href="interface_clean___base_lib_1_1_i_serial_value_collection.html" target="_top" xlink:title="The interface for packets, headers, and payloads">
<polygon fill="white" stroke="black" points="28.2987,-244.5 28.2987,-301.5 139.299,-301.5 139.299,-244.5 28.2987,-244.5"/>
<text text-anchor="middle" x="83.7987" y="-289.5" font-family="Helvetica,sans-Serif" font-size="10.00">ISerialValueCollection</text>
<polyline fill="none" stroke="black" points="28.2987,-282.5 139.299,-282.5 "/>
<text text-anchor="start" x="36.2987" y="-270.5" font-family="Helvetica,sans-Serif" font-size="10.00">+ SerialValueList</text>
<polyline fill="none" stroke="black" points="28.2987,-263.5 139.299,-263.5 "/>
<text text-anchor="middle" x="83.7987" y="-251.5" font-family="Helvetica,sans-Serif" font-size="10.00"> </text>
</a>
</g>
</g>
<!-- Node4&#45;&gt;Node3 -->
<g id="edge1" class="edge"><title>Node4&#45;&gt;Node3</title>
<path fill="none" stroke="midnightblue" d="M31.7715,-237.52C22.4545,-228.751 14.0508,-218.502 8.79873,-207 -3.93937,-179.104 -1.52387,-166.877 8.79873,-138 14.9521,-120.786 25.8918,-104.482 37.5461,-90.5361"/>
<polygon fill="none" stroke="midnightblue" points="29.5774,-240.251 39.3965,-244.231 34.2022,-234.996 29.5774,-240.251"/>
</g>
<!-- Node6 -->
<g id="node4" class="node"><title>Node6</title>
<g id="a_node4"><a xlink:href="class_clean___base_lib_1_1_base_class___packet_header.html" target="_top" xlink:title="BaseClass_PacketHeader is the abstract header class used for routing and identification of the packet...">
<polygon fill="white" stroke="black" points="17.7987,-138.5 17.7987,-206.5 149.799,-206.5 149.799,-138.5 17.7987,-138.5"/>
<text text-anchor="start" x="25.7987" y="-194.5" font-family="Helvetica,sans-Serif" font-size="10.00">Clean_BaseLib.BaseClass</text>
<text text-anchor="middle" x="83.7987" y="-183.5" font-family="Helvetica,sans-Serif" font-size="10.00">_PacketHeader</text>
<polyline fill="none" stroke="black" points="17.7987,-176.5 149.799,-176.5 "/>
<text text-anchor="start" x="25.7987" y="-164.5" font-family="Helvetica,sans-Serif" font-size="10.00">+ SerialValueList</text>
<polyline fill="none" stroke="black" points="17.7987,-157.5 149.799,-157.5 "/>
<text text-anchor="start" x="25.7987" y="-145.5" font-family="Helvetica,sans-Serif" font-size="10.00">+ GetObjectData()</text>
</a>
</g>
</g>
<!-- Node4&#45;&gt;Node6 -->
<g id="edge4" class="edge"><title>Node4&#45;&gt;Node6</title>
<path fill="none" stroke="midnightblue" d="M83.7987,-234.007C83.7987,-224.962 83.7987,-215.383 83.7987,-206.578"/>
<polygon fill="none" stroke="midnightblue" points="80.2988,-234.3 83.7987,-244.3 87.2988,-234.3 80.2988,-234.3"/>
</g>
<!-- Node7 -->
<g id="node5" class="node"><title>Node7</title>
<g id="a_node5"><a xlink:href="class_clean___base_lib_1_1_base_class___packet_payload.html" target="_top" xlink:title="BaseClass_PacketPayload is the abstract payload class used to transfer serialized values through the ...">
<polygon fill="white" stroke="black" points="167.799,-138.5 167.799,-206.5 299.799,-206.5 299.799,-138.5 167.799,-138.5"/>
<text text-anchor="start" x="175.799" y="-194.5" font-family="Helvetica,sans-Serif" font-size="10.00">Clean_BaseLib.BaseClass</text>
<text text-anchor="middle" x="233.799" y="-183.5" font-family="Helvetica,sans-Serif" font-size="10.00">_PacketPayload</text>
<polyline fill="none" stroke="black" points="167.799,-176.5 299.799,-176.5 "/>
<text text-anchor="start" x="175.799" y="-164.5" font-family="Helvetica,sans-Serif" font-size="10.00">+ SerialValueList</text>
<polyline fill="none" stroke="black" points="167.799,-157.5 299.799,-157.5 "/>
<text text-anchor="start" x="175.799" y="-145.5" font-family="Helvetica,sans-Serif" font-size="10.00">+ GetObjectData()</text>
</a>
</g>
</g>
<!-- Node4&#45;&gt;Node7 -->
<g id="edge6" class="edge"><title>Node4&#45;&gt;Node7</title>
<path fill="none" stroke="midnightblue" d="M134.554,-238.67C150.32,-228.318 167.686,-216.914 183.425,-206.578"/>
<polygon fill="none" stroke="midnightblue" points="132.419,-235.885 125.981,-244.3 136.261,-241.737 132.419,-235.885"/>
</g>
<!-- Node5 -->
<g id="node3" class="node"><title>Node5</title>
<g id="a_node3"><a xlink:title=" ">
<polygon fill="white" stroke="#bfbfbf" points="49.2987,-339.5 49.2987,-396.5 118.299,-396.5 118.299,-339.5 49.2987,-339.5"/>
<text text-anchor="middle" x="83.7987" y="-384.5" font-family="Helvetica,sans-Serif" font-size="10.00">ISerializable</text>
<polyline fill="none" stroke="#bfbfbf" points="49.2987,-377.5 118.299,-377.5 "/>
<text text-anchor="middle" x="83.7987" y="-365.5" font-family="Helvetica,sans-Serif" font-size="10.00"> </text>
<polyline fill="none" stroke="#bfbfbf" points="49.2987,-358.5 118.299,-358.5 "/>
<text text-anchor="middle" x="83.7987" y="-346.5" font-family="Helvetica,sans-Serif" font-size="10.00"> </text>
</a>
</g>
</g>
<!-- Node5&#45;&gt;Node4 -->
<g id="edge2" class="edge"><title>Node5&#45;&gt;Node4</title>
<path fill="none" stroke="midnightblue" d="M83.7987,-329.235C83.7987,-320.028 83.7987,-310.346 83.7987,-301.705"/>
<polygon fill="none" stroke="midnightblue" points="80.2988,-329.349 83.7987,-339.349 87.2988,-329.349 80.2988,-329.349"/>
</g>
<!-- Node6&#45;&gt;Node3 -->
<g id="edge3" class="edge"><title>Node6&#45;&gt;Node3</title>
<path fill="none" stroke="#404040" d="M83.7987,-138.33C83.7987,-127.373 83.7987,-114.86 83.7987,-102.671"/>
<polygon fill="none" stroke="#404040" points="83.7988,-102.66 79.7988,-96.6597 83.7987,-90.6596 87.7988,-96.6596 83.7988,-102.66"/>
<text text-anchor="middle" x="118.299" y="-112" font-family="Helvetica,sans-Serif" font-size="10.00"> #packetHeader</text>
</g>
<!-- Node7&#45;&gt;Node3 -->
<g id="edge5" class="edge"><title>Node7&#45;&gt;Node3</title>
<path fill="none" stroke="#404040" d="M193.995,-138.33C179.339,-126.117 162.365,-111.972 146.194,-98.4964"/>
<polygon fill="none" stroke="#404040" points="146.009,-98.3419 138.839,-97.5737 136.79,-90.6596 143.96,-91.4279 146.009,-98.3419"/>
<text text-anchor="middle" x="203.299" y="-112" font-family="Helvetica,sans-Serif" font-size="10.00"> #packetPayload</text>
</g>
</g>
</svg>
