<?xml version="1.0" encoding="UTF-8" standalone="no"?>
<!DOCTYPE svg PUBLIC "-//W3C//DTD SVG 1.1//EN"
 "http://www.w3.org/Graphics/SVG/1.1/DTD/svg11.dtd">
<!-- Generated by graphviz version 2.38.0 (20140413.2041)
 -->
<!-- Title: Clean_BaseLib.BaseClass_Module Pages: 1 -->
<svg width="880pt" height="353pt"
 viewBox="0.00 0.00 880.00 353.00" xmlns="http://www.w3.org/2000/svg" xmlns:xlink="http://www.w3.org/1999/xlink">
<g id="graph0" class="graph" transform="scale(1 1) rotate(0) translate(4 349)">
<title>Clean_BaseLib.BaseClass_Module</title>
<polygon fill="white" stroke="none" points="-4,4 -4,-349 876,-349 876,4 -4,4"/>
<!-- Node0 -->
<g id="node1" class="node"><title>Node0</title>
<g id="a_node1"><a xlink:title="BaseClass_Module abstract class is the fundamental executional element of the modular clean system.">
<polygon fill="#bfbfbf" stroke="black" points="372,-210.5 372,-344.5 504,-344.5 504,-210.5 372,-210.5"/>
<text text-anchor="start" x="380" y="-332.5" font-family="Helvetica,sans-Serif" font-size="10.00">Clean_BaseLib.BaseClass</text>
<text text-anchor="middle" x="438" y="-321.5" font-family="Helvetica,sans-Serif" font-size="10.00">_Module</text>
<polyline fill="none" stroke="black" points="372,-314.5 504,-314.5 "/>
<text text-anchor="start" x="380" y="-302.5" font-family="Helvetica,sans-Serif" font-size="10.00">+ IsInitialized</text>
<text text-anchor="start" x="380" y="-291.5" font-family="Helvetica,sans-Serif" font-size="10.00">+ ShouldExecute</text>
<text text-anchor="start" x="380" y="-280.5" font-family="Helvetica,sans-Serif" font-size="10.00">+ InitThreadID</text>
<polyline fill="none" stroke="black" points="372,-273.5 504,-273.5 "/>
<text text-anchor="start" x="380" y="-261.5" font-family="Helvetica,sans-Serif" font-size="10.00">+ BaseClass_Module()</text>
<text text-anchor="start" x="380" y="-250.5" font-family="Helvetica,sans-Serif" font-size="10.00">+ BaseClass_Module()</text>
<text text-anchor="start" x="380" y="-239.5" font-family="Helvetica,sans-Serif" font-size="10.00">+ mainInit()</text>
<text text-anchor="start" x="380" y="-228.5" font-family="Helvetica,sans-Serif" font-size="10.00">+ mainLoop()</text>
<text text-anchor="start" x="380" y="-217.5" font-family="Helvetica,sans-Serif" font-size="10.00"># linkModuleExeSys()</text>
</a>
</g>
</g>
<!-- Node1 -->
<g id="node2" class="node"><title>Node1</title>
<g id="a_node2"><a xlink:href="class_m_d_s___code_generation_1_1_m_d_s___code_gen_module.html" target="_top" xlink:title=" ">
<polygon fill="white" stroke="black" points="0,-105.5 0,-173.5 138,-173.5 138,-105.5 0,-105.5"/>
<text text-anchor="start" x="8" y="-161.5" font-family="Helvetica,sans-Serif" font-size="10.00">MDS_CodeGeneration.MDS</text>
<text text-anchor="middle" x="69" y="-150.5" font-family="Helvetica,sans-Serif" font-size="10.00">_CodeGenModule</text>
<polyline fill="none" stroke="black" points="0,-143.5 138,-143.5 "/>
<text text-anchor="middle" x="69" y="-131.5" font-family="Helvetica,sans-Serif" font-size="10.00"> </text>
<polyline fill="none" stroke="black" points="0,-124.5 138,-124.5 "/>
<text text-anchor="start" x="8" y="-112.5" font-family="Helvetica,sans-Serif" font-size="10.00">+ MDS_CodeGenModule()</text>
</a>
</g>
</g>
<!-- Node0&#45;&gt;Node1 -->
<g id="edge1" class="edge"><title>Node0&#45;&gt;Node1</title>
<path fill="none" stroke="midnightblue" d="M362.328,-251.398C303.293,-231.443 219.434,-202.275 147,-174 144.117,-172.875 141.182,-171.708 138.223,-170.516"/>
<polygon fill="none" stroke="midnightblue" points="361.356,-254.764 371.95,-254.644 363.593,-248.131 361.356,-254.764"/>
</g>
<!-- Node2 -->
<g id="node3" class="node"><title>Node2</title>
<g id="a_node3"><a xlink:href="class_m_d_s___core_lib_1_1_m_d_s___code_generation_module.html" target="_top" xlink:title=" ">
<polygon fill="white" stroke="black" points="156,-105.5 156,-173.5 332,-173.5 332,-105.5 156,-105.5"/>
<text text-anchor="start" x="164" y="-161.5" font-family="Helvetica,sans-Serif" font-size="10.00">MDS_CoreLib.MDS_CodeGeneration</text>
<text text-anchor="middle" x="244" y="-150.5" font-family="Helvetica,sans-Serif" font-size="10.00">Module</text>
<polyline fill="none" stroke="black" points="156,-143.5 332,-143.5 "/>
<text text-anchor="middle" x="244" y="-131.5" font-family="Helvetica,sans-Serif" font-size="10.00"> </text>
<polyline fill="none" stroke="black" points="156,-124.5 332,-124.5 "/>
<text text-anchor="middle" x="244" y="-112.5" font-family="Helvetica,sans-Serif" font-size="10.00"> </text>
</a>
</g>
</g>
<!-- Node0&#45;&gt;Node2 -->
<g id="edge2" class="edge"><title>Node0&#45;&gt;Node2</title>
<path fill="none" stroke="midnightblue" d="M363.306,-224.137C339.089,-207.161 312.912,-188.809 291.265,-173.634"/>
<polygon fill="none" stroke="midnightblue" points="361.581,-227.202 371.779,-230.077 365.6,-221.471 361.581,-227.202"/>
</g>
<!-- Node3 -->
<g id="node4" class="node"><title>Node3</title>
<g id="a_node4"><a xlink:href="class_m_d_s___core_lib_1_1_m_d_s___sandbox_module.html" target="_top" xlink:title=" ">
<polygon fill="white" stroke="black" points="350,-111 350,-168 526,-168 526,-111 350,-111"/>
<text text-anchor="middle" x="438" y="-156" font-family="Helvetica,sans-Serif" font-size="10.00">MDS_CoreLib.MDS_SandboxModule</text>
<polyline fill="none" stroke="black" points="350,-149 526,-149 "/>
<text text-anchor="middle" x="438" y="-137" font-family="Helvetica,sans-Serif" font-size="10.00"> </text>
<polyline fill="none" stroke="black" points="350,-130 526,-130 "/>
<text text-anchor="middle" x="438" y="-118" font-family="Helvetica,sans-Serif" font-size="10.00"> </text>
</a>
</g>
</g>
<!-- Node0&#45;&gt;Node3 -->
<g id="edge3" class="edge"><title>Node0&#45;&gt;Node3</title>
<path fill="none" stroke="midnightblue" d="M438,-200.386C438,-188.939 438,-177.803 438,-168.301"/>
<polygon fill="none" stroke="midnightblue" points="434.5,-200.492 438,-210.492 441.5,-200.492 434.5,-200.492"/>
</g>
<!-- Node4 -->
<g id="node5" class="node"><title>Node4</title>
<g id="a_node5"><a xlink:href="class_m_d_s___core_lib_1_1_m_d_s___simulation_module.html" target="_top" xlink:title=" ">
<polygon fill="white" stroke="black" points="544,-105.5 544,-173.5 696,-173.5 696,-105.5 544,-105.5"/>
<text text-anchor="start" x="552" y="-161.5" font-family="Helvetica,sans-Serif" font-size="10.00">MDS_CoreLib.MDS_Simulation</text>
<text text-anchor="middle" x="620" y="-150.5" font-family="Helvetica,sans-Serif" font-size="10.00">Module</text>
<polyline fill="none" stroke="black" points="544,-143.5 696,-143.5 "/>
<text text-anchor="middle" x="620" y="-131.5" font-family="Helvetica,sans-Serif" font-size="10.00"> </text>
<polyline fill="none" stroke="black" points="544,-124.5 696,-124.5 "/>
<text text-anchor="middle" x="620" y="-112.5" font-family="Helvetica,sans-Serif" font-size="10.00"> </text>
</a>
</g>
</g>
<!-- Node0&#45;&gt;Node4 -->
<g id="edge4" class="edge"><title>Node0&#45;&gt;Node4</title>
<path fill="none" stroke="midnightblue" d="M512.387,-220.914C533.885,-204.849 556.664,-187.828 575.701,-173.602"/>
<polygon fill="none" stroke="midnightblue" points="510.137,-218.227 504.221,-227.016 514.327,-223.834 510.137,-218.227"/>
</g>
<!-- Node5 -->
<g id="node6" class="node"><title>Node5</title>
<g id="a_node6"><a xlink:href="class_m_d_s___core_lib_1_1_m_d_s___user_module.html" target="_top" xlink:title=" ">
<polygon fill="white" stroke="black" points="714,-111 714,-168 872,-168 872,-111 714,-111"/>
<text text-anchor="middle" x="793" y="-156" font-family="Helvetica,sans-Serif" font-size="10.00">MDS_CoreLib.MDS_UserModule</text>
<polyline fill="none" stroke="black" points="714,-149 872,-149 "/>
<text text-anchor="middle" x="793" y="-137" font-family="Helvetica,sans-Serif" font-size="10.00"> </text>
<polyline fill="none" stroke="black" points="714,-130 872,-130 "/>
<text text-anchor="start" x="722" y="-118" font-family="Helvetica,sans-Serif" font-size="10.00">+ MDS_UserModule()</text>
</a>
</g>
</g>
<!-- Node0&#45;&gt;Node5 -->
<g id="edge5" class="edge"><title>Node0&#45;&gt;Node5</title>
<path fill="none" stroke="midnightblue" d="M513.982,-247.391C575.307,-223.898 660.987,-191.074 721.175,-168.016"/>
<polygon fill="none" stroke="midnightblue" points="512.442,-244.233 504.356,-251.079 514.947,-250.77 512.442,-244.233"/>
</g>
<!-- Node6 -->
<g id="node7" class="node"><title>Node6</title>
<g id="a_node7"><a xlink:href="class_m_d_s___application_1_1_user_module___s_t_d___i_o.html" target="_top" xlink:title=" ">
<polygon fill="white" stroke="black" points="720,-0.5 720,-68.5 866,-68.5 866,-0.5 720,-0.5"/>
<text text-anchor="start" x="728" y="-56.5" font-family="Helvetica,sans-Serif" font-size="10.00">MDS_Application.UserModule</text>
<text text-anchor="middle" x="793" y="-45.5" font-family="Helvetica,sans-Serif" font-size="10.00">_STD_IO</text>
<polyline fill="none" stroke="black" points="720,-38.5 866,-38.5 "/>
<text text-anchor="middle" x="793" y="-26.5" font-family="Helvetica,sans-Serif" font-size="10.00"> </text>
<polyline fill="none" stroke="black" points="720,-19.5 866,-19.5 "/>
<text text-anchor="start" x="728" y="-7.5" font-family="Helvetica,sans-Serif" font-size="10.00">+ UserModule_STD_IO()</text>
</a>
</g>
</g>
<!-- Node5&#45;&gt;Node6 -->
<g id="edge6" class="edge"><title>Node5&#45;&gt;Node6</title>
<path fill="none" stroke="midnightblue" d="M793,-100.738C793,-90.2318 793,-78.903 793,-68.6812"/>
<polygon fill="none" stroke="midnightblue" points="789.5,-100.898 793,-110.898 796.5,-100.898 789.5,-100.898"/>
</g>
</g>
</svg>
