<?xml version="1.0" encoding="UTF-8" standalone="no"?>
<!DOCTYPE svg PUBLIC "-//W3C//DTD SVG 1.1//EN"
 "http://www.w3.org/Graphics/SVG/1.1/DTD/svg11.dtd">
<!-- Generated by graphviz version 2.38.0 (20140413.2041)
 -->
<!-- Title: Clean_BaseLib.BaseClass_CommandResponse Pages: 1 -->
<!--zoomable 576 -->
<svg id="main" version="1.1" xmlns="http://www.w3.org/2000/svg" xmlns:xlink="http://www.w3.org/1999/xlink" xml:space="preserve" onload="init(evt)">
<style type="text/css"><![CDATA[
.edge:hover path { stroke: red; }
.edge:hover polygon { stroke: red; fill: red; }
]]></style>
<script type="text/javascript"><![CDATA[
var edges = document.getElementsByTagName('g');
if (edges && edges.length) {
  for (var i=0;i<edges.length;i++) {
    if (edges[i].id.substr(0,4)=='edge') {
      edges[i].setAttribute('class','edge');
    }
  }
}
]]></script>
        <defs>
                <circle id="rim" cx="0" cy="0" r="7"/>
                <circle id="rim2" cx="0" cy="0" r="3.5"/>
                <g id="zoomPlus">
                        <use xlink:href="#rim" fill="#404040">
                                <set attributeName="fill" to="#808080" begin="zoomplus.mouseover" end="zoomplus.mouseout"/>
                        </use>
                        <path d="M-4,0h8M0,-4v8" fill="none" stroke="white" stroke-width="1.5" pointer-events="none"/>
                </g>
                <g id="zoomMin">
                        <use xlink:href="#rim" fill="#404040">
                                <set attributeName="fill" to="#808080" begin="zoomminus.mouseover" end="zoomminus.mouseout"/>
                        </use>
                        <path d="M-4,0h8" fill="none" stroke="white" stroke-width="1.5" pointer-events="none"/>
                </g>
                <g id="dirArrow">
                        <path fill="none" stroke="white" stroke-width="1.5" d="M0,-3.0v7 M-2.5,-0.5L0,-3.0L2.5,-0.5"/>
                </g>
               <g id="resetDef">
                       <use xlink:href="#rim2" fill="#404040">
                               <set attributeName="fill" to="#808080" begin="reset.mouseover" end="reset.mouseout"/>
                       </use>
               </g>
        </defs>

<script type="text/javascript">
var viewWidth = 310;
var viewHeight = 576;
var sectionId = 'dynsection-0';
</script>
<script xlink:href="svgpan.js"/>
<svg id="graph" class="graph">
<g id="viewport">
<title>Clean_BaseLib.BaseClass_CommandResponse</title>
<polygon fill="white" stroke="none" points="-4,4 -4,-572 306,-572 306,4 -4,4"/>
<!-- Node1 -->
<g id="node1" class="node"><title>Node1</title>
<g id="a_node1"><a xlink:title="BaseClass_CommandResponse abstract class is a common shared element used by Modules and the Execution...">
<polygon fill="#bfbfbf" stroke="black" points="0,-0.5 0,-123.5 172,-123.5 172,-0.5 0,-0.5"/>
<text text-anchor="start" x="8" y="-111.5" font-family="Helvetica,sans-Serif" font-size="10.00">Clean_BaseLib.BaseClass</text>
<text text-anchor="middle" x="86" y="-100.5" font-family="Helvetica,sans-Serif" font-size="10.00">_CommandResponse</text>
<polyline fill="none" stroke="black" points="0,-93.5 172,-93.5 "/>
<text text-anchor="start" x="8" y="-81.5" font-family="Helvetica,sans-Serif" font-size="10.00">+ CommandPacket</text>
<text text-anchor="start" x="8" y="-70.5" font-family="Helvetica,sans-Serif" font-size="10.00">+ ResponsePacket</text>
<text text-anchor="start" x="8" y="-59.5" font-family="Helvetica,sans-Serif" font-size="10.00">+ CMDisPacked</text>
<text text-anchor="start" x="8" y="-48.5" font-family="Helvetica,sans-Serif" font-size="10.00">+ CMDisSent</text>
<text text-anchor="start" x="8" y="-37.5" font-family="Helvetica,sans-Serif" font-size="10.00">+ RSPisReceived</text>
<text text-anchor="start" x="8" y="-26.5" font-family="Helvetica,sans-Serif" font-size="10.00">+ RSPisParsed</text>
<polyline fill="none" stroke="black" points="0,-19.5 172,-19.5 "/>
<text text-anchor="start" x="8" y="-7.5" font-family="Helvetica,sans-Serif" font-size="10.00">+ BaseClass_CommandResponse()</text>
</a>
</g>
</g>
<!-- Node2 -->
<g id="node2" class="node"><title>Node2</title>
<g id="a_node2"><a xlink:href="class_clean___base_lib_1_1_base_class___packet.html" target="_top" xlink:title="BaseClass_Packet is the abstract packet class implementing the ISerialValueCollection interface.">
<polygon fill="white" stroke="black" points="20,-171.5 20,-261.5 152,-261.5 152,-171.5 20,-171.5"/>
<text text-anchor="start" x="28" y="-249.5" font-family="Helvetica,sans-Serif" font-size="10.00">Clean_BaseLib.BaseClass</text>
<text text-anchor="middle" x="86" y="-238.5" font-family="Helvetica,sans-Serif" font-size="10.00">_Packet</text>
<polyline fill="none" stroke="black" points="20,-231.5 152,-231.5 "/>
<text text-anchor="start" x="28" y="-219.5" font-family="Helvetica,sans-Serif" font-size="10.00">+ Header</text>
<text text-anchor="start" x="28" y="-208.5" font-family="Helvetica,sans-Serif" font-size="10.00">+ Payload</text>
<text text-anchor="start" x="28" y="-197.5" font-family="Helvetica,sans-Serif" font-size="10.00">+ SerialValueList</text>
<polyline fill="none" stroke="black" points="20,-190.5 152,-190.5 "/>
<text text-anchor="start" x="28" y="-178.5" font-family="Helvetica,sans-Serif" font-size="10.00">+ GetObjectData()</text>
</a>
</g>
</g>
<!-- Node2&#45;&gt;Node1 -->
<g id="edge1" class="edge"><title>Node2&#45;&gt;Node1</title>
<path fill="none" stroke="#404040" d="M86,-171.391C86,-160.241 86,-147.969 86,-135.813"/>
<polygon fill="none" stroke="#404040" points="86.0001,-135.743 82,-129.743 86,-123.743 90,-129.743 86.0001,-135.743"/>
<text text-anchor="middle" x="115" y="-145" font-family="Helvetica,sans-Serif" font-size="10.00"> #cmdPacket</text>
</g>
<!-- Node3 -->
<g id="node3" class="node"><title>Node3</title>
<g id="a_node3"><a xlink:href="interface_clean___base_lib_1_1_i_serial_value_collection.html" target="_top" xlink:title="The interface for packets, headers, and payloads">
<polygon fill="white" stroke="black" points="30.5,-415.5 30.5,-472.5 141.5,-472.5 141.5,-415.5 30.5,-415.5"/>
<text text-anchor="middle" x="86" y="-460.5" font-family="Helvetica,sans-Serif" font-size="10.00">ISerialValueCollection</text>
<polyline fill="none" stroke="black" points="30.5,-453.5 141.5,-453.5 "/>
<text text-anchor="start" x="38.5" y="-441.5" font-family="Helvetica,sans-Serif" font-size="10.00">+ SerialValueList</text>
<polyline fill="none" stroke="black" points="30.5,-434.5 141.5,-434.5 "/>
<text text-anchor="middle" x="86" y="-422.5" font-family="Helvetica,sans-Serif" font-size="10.00"> </text>
</a>
</g>
</g>
<!-- Node3&#45;&gt;Node2 -->
<g id="edge2" class="edge"><title>Node3&#45;&gt;Node2</title>
<path fill="none" stroke="midnightblue" d="M33.9727,-408.52C24.6558,-399.751 16.252,-389.502 11,-378 -1.73811,-350.104 0.6774,-337.877 11,-309 17.1533,-291.786 28.0931,-275.482 39.7474,-261.536"/>
<polygon fill="none" stroke="midnightblue" points="31.7787,-411.251 41.5978,-415.231 36.4035,-405.996 31.7787,-411.251"/>
</g>
<!-- Node5 -->
<g id="node5" class="node"><title>Node5</title>
<g id="a_node5"><a xlink:href="class_clean___base_lib_1_1_base_class___packet_header.html" target="_top" xlink:title="BaseClass_PacketHeader is the abstract header class used for routing and identification of the packet...">
<polygon fill="white" stroke="black" points="20,-309.5 20,-377.5 152,-377.5 152,-309.5 20,-309.5"/>
<text text-anchor="start" x="28" y="-365.5" font-family="Helvetica,sans-Serif" font-size="10.00">Clean_BaseLib.BaseClass</text>
<text text-anchor="middle" x="86" y="-354.5" font-family="Helvetica,sans-Serif" font-size="10.00">_PacketHeader</text>
<polyline fill="none" stroke="black" points="20,-347.5 152,-347.5 "/>
<text text-anchor="start" x="28" y="-335.5" font-family="Helvetica,sans-Serif" font-size="10.00">+ SerialValueList</text>
<polyline fill="none" stroke="black" points="20,-328.5 152,-328.5 "/>
<text text-anchor="start" x="28" y="-316.5" font-family="Helvetica,sans-Serif" font-size="10.00">+ GetObjectData()</text>
</a>
</g>
</g>
<!-- Node3&#45;&gt;Node5 -->
<g id="edge5" class="edge"><title>Node3&#45;&gt;Node5</title>
<path fill="none" stroke="midnightblue" d="M86,-405.007C86,-395.962 86,-386.383 86,-377.578"/>
<polygon fill="none" stroke="midnightblue" points="82.5001,-405.3 86,-415.3 89.5001,-405.3 82.5001,-405.3"/>
</g>
<!-- Node6 -->
<g id="node6" class="node"><title>Node6</title>
<g id="a_node6"><a xlink:href="class_clean___base_lib_1_1_base_class___packet_payload.html" target="_top" xlink:title="BaseClass_PacketPayload is the abstract payload class used to transfer serialized values through the ...">
<polygon fill="white" stroke="black" points="170,-309.5 170,-377.5 302,-377.5 302,-309.5 170,-309.5"/>
<text text-anchor="start" x="178" y="-365.5" font-family="Helvetica,sans-Serif" font-size="10.00">Clean_BaseLib.BaseClass</text>
<text text-anchor="middle" x="236" y="-354.5" font-family="Helvetica,sans-Serif" font-size="10.00">_PacketPayload</text>
<polyline fill="none" stroke="black" points="170,-347.5 302,-347.5 "/>
<text text-anchor="start" x="178" y="-335.5" font-family="Helvetica,sans-Serif" font-size="10.00">+ SerialValueList</text>
<polyline fill="none" stroke="black" points="170,-328.5 302,-328.5 "/>
<text text-anchor="start" x="178" y="-316.5" font-family="Helvetica,sans-Serif" font-size="10.00">+ GetObjectData()</text>
</a>
</g>
</g>
<!-- Node3&#45;&gt;Node6 -->
<g id="edge7" class="edge"><title>Node3&#45;&gt;Node6</title>
<path fill="none" stroke="midnightblue" d="M136.756,-409.67C152.521,-399.318 169.888,-387.914 185.627,-377.578"/>
<polygon fill="none" stroke="midnightblue" points="134.62,-406.885 128.183,-415.3 138.463,-412.737 134.62,-406.885"/>
</g>
<!-- Node4 -->
<g id="node4" class="node"><title>Node4</title>
<g id="a_node4"><a xlink:title=" ">
<polygon fill="white" stroke="#bfbfbf" points="51.5,-510.5 51.5,-567.5 120.5,-567.5 120.5,-510.5 51.5,-510.5"/>
<text text-anchor="middle" x="86" y="-555.5" font-family="Helvetica,sans-Serif" font-size="10.00">ISerializable</text>
<polyline fill="none" stroke="#bfbfbf" points="51.5,-548.5 120.5,-548.5 "/>
<text text-anchor="middle" x="86" y="-536.5" font-family="Helvetica,sans-Serif" font-size="10.00"> </text>
<polyline fill="none" stroke="#bfbfbf" points="51.5,-529.5 120.5,-529.5 "/>
<text text-anchor="middle" x="86" y="-517.5" font-family="Helvetica,sans-Serif" font-size="10.00"> </text>
</a>
</g>
</g>
<!-- Node4&#45;&gt;Node3 -->
<g id="edge3" class="edge"><title>Node4&#45;&gt;Node3</title>
<path fill="none" stroke="midnightblue" d="M86,-500.235C86,-491.028 86,-481.346 86,-472.705"/>
<polygon fill="none" stroke="midnightblue" points="82.5001,-500.349 86,-510.349 89.5001,-500.349 82.5001,-500.349"/>
</g>
<!-- Node5&#45;&gt;Node2 -->
<g id="edge4" class="edge"><title>Node5&#45;&gt;Node2</title>
<path fill="none" stroke="#404040" d="M86,-309.33C86,-298.373 86,-285.86 86,-273.671"/>
<polygon fill="none" stroke="#404040" points="86.0001,-273.66 82,-267.66 86,-261.66 90,-267.66 86.0001,-273.66"/>
<text text-anchor="middle" x="120.5" y="-283" font-family="Helvetica,sans-Serif" font-size="10.00"> #packetHeader</text>
</g>
<!-- Node6&#45;&gt;Node2 -->
<g id="edge6" class="edge"><title>Node6&#45;&gt;Node2</title>
<path fill="none" stroke="#404040" d="M196.197,-309.33C181.541,-297.117 164.566,-282.972 148.396,-269.496"/>
<polygon fill="none" stroke="#404040" points="148.21,-269.342 141.04,-268.574 138.992,-261.66 146.162,-262.428 148.21,-269.342"/>
<text text-anchor="middle" x="205.5" y="-283" font-family="Helvetica,sans-Serif" font-size="10.00"> #packetPayload</text>
</g>
</g>
</svg>
        <g id="navigator" transform="translate(0 0)" fill="#404254">
                <rect fill="#f2f5e9" fill-opacity="0.5" stroke="#606060" stroke-width=".5" x="0" y="0" width="60" height="60"/>
                <use id="zoomplus" xlink:href="#zoomPlus" x="17" y="9" onmousedown="handleZoom(evt,'in')"/>
                <use id="zoomminus" xlink:href="#zoomMin" x="42" y="9" onmousedown="handleZoom(evt,'out')"/>
                <use id="reset" xlink:href="#resetDef" x="30" y="36" onmousedown="handleReset()"/>
                <g id="arrowUp" xlink:href="#dirArrow" transform="translate(30 24)" onmousedown="handlePan(0,-1)">
                  <use xlink:href="#rim" fill="#404040">
                        <set attributeName="fill" to="#808080" begin="arrowUp.mouseover" end="arrowUp.mouseout"/>
                  </use>
                  <path fill="none" stroke="white" stroke-width="1.5" d="M0,-3.0v7 M-2.5,-0.5L0,-3.0L2.5,-0.5"/>
                </g>
                <g id="arrowRight" xlink:href="#dirArrow" transform="rotate(90) translate(36 -43)" onmousedown="handlePan(1,0)">
                  <use xlink:href="#rim" fill="#404040">
                        <set attributeName="fill" to="#808080" begin="arrowRight.mouseover" end="arrowRight.mouseout"/>
                  </use>
                  <path fill="none" stroke="white" stroke-width="1.5" d="M0,-3.0v7 M-2.5,-0.5L0,-3.0L2.5,-0.5"/>
                </g>
                <g id="arrowDown" xlink:href="#dirArrow" transform="rotate(180) translate(-30 -48)" onmousedown="handlePan(0,1)">
                  <use xlink:href="#rim" fill="#404040">
                        <set attributeName="fill" to="#808080" begin="arrowDown.mouseover" end="arrowDown.mouseout"/>
                  </use>
                  <path fill="none" stroke="white" stroke-width="1.5" d="M0,-3.0v7 M-2.5,-0.5L0,-3.0L2.5,-0.5"/>
                </g>
                <g id="arrowLeft" xlink:href="#dirArrow" transform="rotate(270) translate(-36 17)" onmousedown="handlePan(-1,0)">
                  <use xlink:href="#rim" fill="#404040">
                        <set attributeName="fill" to="#808080" begin="arrowLeft.mouseover" end="arrowLeft.mouseout"/>
                  </use>
                  <path fill="none" stroke="white" stroke-width="1.5" d="M0,-3.0v7 M-2.5,-0.5L0,-3.0L2.5,-0.5"/>
                </g>
        </g>
        <svg viewBox="0 0 15 15" width="100%" height="30px" preserveAspectRatio="xMaxYMin meet">
         <g id="arrow_out" transform="scale(0.3 0.3)">
          <a xlink:href="class_clean___base_lib_1_1_base_class___command_response__coll__graph_org.svg" target="_base">
           <rect id="button" ry="5" rx="5" y="6" x="6" height="38" width="38"
                fill="#f2f5e9" fill-opacity="0.5" stroke="#606060" stroke-width="1.0"/>
           <path id="arrow"
             d="M 11.500037,31.436501 C 11.940474,20.09759 22.043105,11.32322 32.158766,21.979434 L 37.068811,17.246167 C 37.068811,17.246167 37.088388,32 37.088388,32 L 22.160133,31.978069 C 22.160133,31.978069 26.997745,27.140456 26.997745,27.140456 C 18.528582,18.264221 13.291696,25.230495 11.500037,31.436501 z"
             style="fill:#404040;"/>
          </a>
         </g>
        </svg>
</svg>
