<?xml version="1.0" encoding="UTF-8" standalone="no"?>
<!DOCTYPE svg PUBLIC "-//W3C//DTD SVG 1.1//EN"
 "http://www.w3.org/Graphics/SVG/1.1/DTD/svg11.dtd">
<!-- Generated by graphviz version 2.38.0 (20140413.2041)
 -->
<!-- Title: MDS_CoreLib.MDS_SandboxModule Pages: 1 -->
<svg width="184pt" height="237pt"
 viewBox="0.00 0.00 184.00 237.00" xmlns="http://www.w3.org/2000/svg" xmlns:xlink="http://www.w3.org/1999/xlink">
<g id="graph0" class="graph" transform="scale(1 1) rotate(0) translate(4 233)">
<title>MDS_CoreLib.MDS_SandboxModule</title>
<polygon fill="white" stroke="none" points="-4,4 -4,-233 180,-233 180,4 -4,4"/>
<!-- Node2 -->
<g id="node1" class="node"><title>Node2</title>
<g id="a_node1"><a xlink:title=" ">
<polygon fill="#bfbfbf" stroke="black" points="0,-0.5 0,-57.5 176,-57.5 176,-0.5 0,-0.5"/>
<text text-anchor="middle" x="88" y="-45.5" font-family="Helvetica,sans-Serif" font-size="10.00">MDS_CoreLib.MDS_SandboxModule</text>
<polyline fill="none" stroke="black" points="0,-38.5 176,-38.5 "/>
<text text-anchor="middle" x="88" y="-26.5" font-family="Helvetica,sans-Serif" font-size="10.00"> </text>
<polyline fill="none" stroke="black" points="0,-19.5 176,-19.5 "/>
<text text-anchor="middle" x="88" y="-7.5" font-family="Helvetica,sans-Serif" font-size="10.00"> </text>
</a>
</g>
</g>
<!-- Node3 -->
<g id="node2" class="node"><title>Node3</title>
<g id="a_node2"><a xlink:href="class_clean___base_lib_1_1_base_class___module.html" target="_top" xlink:title="BaseClass_Module abstract class is the fundamental executional element of the modular clean system.">
<polygon fill="white" stroke="black" points="20.5,-94.5 20.5,-228.5 155.5,-228.5 155.5,-94.5 20.5,-94.5"/>
<text text-anchor="start" x="28.5" y="-216.5" font-family="Helvetica,sans-Serif" font-size="10.00">Clean_BaseLib::BaseClass</text>
<text text-anchor="middle" x="88" y="-205.5" font-family="Helvetica,sans-Serif" font-size="10.00">_Module</text>
<polyline fill="none" stroke="black" points="20.5,-198.5 155.5,-198.5 "/>
<text text-anchor="start" x="28.5" y="-186.5" font-family="Helvetica,sans-Serif" font-size="10.00">+ IsInitialized</text>
<text text-anchor="start" x="28.5" y="-175.5" font-family="Helvetica,sans-Serif" font-size="10.00">+ ShouldExecute</text>
<text text-anchor="start" x="28.5" y="-164.5" font-family="Helvetica,sans-Serif" font-size="10.00">+ InitThreadID</text>
<polyline fill="none" stroke="black" points="20.5,-157.5 155.5,-157.5 "/>
<text text-anchor="start" x="28.5" y="-145.5" font-family="Helvetica,sans-Serif" font-size="10.00">+ BaseClass_Module()</text>
<text text-anchor="start" x="28.5" y="-134.5" font-family="Helvetica,sans-Serif" font-size="10.00">+ BaseClass_Module()</text>
<text text-anchor="start" x="28.5" y="-123.5" font-family="Helvetica,sans-Serif" font-size="10.00">+ mainInit()</text>
<text text-anchor="start" x="28.5" y="-112.5" font-family="Helvetica,sans-Serif" font-size="10.00">+ mainLoop()</text>
<text text-anchor="start" x="28.5" y="-101.5" font-family="Helvetica,sans-Serif" font-size="10.00"># linkModuleExeSys()</text>
</a>
</g>
</g>
<!-- Node3&#45;&gt;Node2 -->
<g id="edge1" class="edge"><title>Node3&#45;&gt;Node2</title>
<path fill="none" stroke="midnightblue" d="M88,-84.4565C88,-74.9088 88,-65.6783 88,-57.6134"/>
<polygon fill="none" stroke="midnightblue" points="84.5001,-84.4853 88,-94.4854 91.5001,-84.4854 84.5001,-84.4853"/>
</g>
</g>
</svg>
