<?xml version="1.0" encoding="UTF-8" standalone="no"?>
<!DOCTYPE svg PUBLIC "-//W3C//DTD SVG 1.1//EN"
 "http://www.w3.org/Graphics/SVG/1.1/DTD/svg11.dtd">
<!-- Generated by graphviz version 2.38.0 (20140413.2041)
 -->
<!-- Title: MDS_CoreLib.MDS_ExecutionSystem Pages: 1 -->
<svg width="534pt" height="453pt"
 viewBox="0.00 0.00 534.00 453.00" xmlns="http://www.w3.org/2000/svg" xmlns:xlink="http://www.w3.org/1999/xlink">
<g id="graph0" class="graph" transform="scale(1 1) rotate(0) translate(4 449)">
<title>MDS_CoreLib.MDS_ExecutionSystem</title>
<polygon fill="white" stroke="none" points="-4,4 -4,-449 530,-449 530,4 -4,4"/>
<!-- Node3 -->
<g id="node1" class="node"><title>Node3</title>
<g id="a_node1"><a xlink:title=" ">
<polygon fill="#bfbfbf" stroke="black" points="178,-0.5 178,-68.5 328,-68.5 328,-0.5 178,-0.5"/>
<text text-anchor="start" x="186" y="-56.5" font-family="Helvetica,sans-Serif" font-size="10.00">MDS_CoreLib.MDS_Execution</text>
<text text-anchor="middle" x="253" y="-45.5" font-family="Helvetica,sans-Serif" font-size="10.00">System</text>
<polyline fill="none" stroke="black" points="178,-38.5 328,-38.5 "/>
<text text-anchor="middle" x="253" y="-26.5" font-family="Helvetica,sans-Serif" font-size="10.00"> </text>
<polyline fill="none" stroke="black" points="178,-19.5 328,-19.5 "/>
<text text-anchor="middle" x="253" y="-7.5" font-family="Helvetica,sans-Serif" font-size="10.00"> </text>
</a>
</g>
</g>
<!-- Node4 -->
<g id="node2" class="node"><title>Node4</title>
<g id="a_node2"><a xlink:href="class_clean___base_lib_1_1_base_class___module_execution_system.html" target="_top" xlink:title="Abstract class defining core modular and clean concepts">
<polygon fill="white" stroke="black" points="0,-116.5 0,-272.5 156,-272.5 156,-116.5 0,-116.5"/>
<text text-anchor="start" x="8" y="-260.5" font-family="Helvetica,sans-Serif" font-size="10.00">Clean_BaseLib::BaseClass</text>
<text text-anchor="middle" x="78" y="-249.5" font-family="Helvetica,sans-Serif" font-size="10.00">_ModuleExecutionSystem</text>
<polyline fill="none" stroke="black" points="0,-242.5 156,-242.5 "/>
<text text-anchor="start" x="8" y="-230.5" font-family="Helvetica,sans-Serif" font-size="10.00">+ configured_failcount</text>
<text text-anchor="start" x="8" y="-219.5" font-family="Helvetica,sans-Serif" font-size="10.00">+ configured_ms_mainWD</text>
<text text-anchor="start" x="8" y="-208.5" font-family="Helvetica,sans-Serif" font-size="10.00">+ configured_ms_exeLoopSleep</text>
<text text-anchor="start" x="8" y="-197.5" font-family="Helvetica,sans-Serif" font-size="10.00">+ Threads</text>
<text text-anchor="start" x="8" y="-186.5" font-family="Helvetica,sans-Serif" font-size="10.00">+ CoreModules</text>
<polyline fill="none" stroke="black" points="0,-179.5 156,-179.5 "/>
<text text-anchor="start" x="8" y="-167.5" font-family="Helvetica,sans-Serif" font-size="10.00">+ BaseClass_ModuleExecution</text>
<text text-anchor="start" x="8" y="-156.5" font-family="Helvetica,sans-Serif" font-size="10.00">System()</text>
<text text-anchor="start" x="8" y="-145.5" font-family="Helvetica,sans-Serif" font-size="10.00">+ Execute()</text>
<text text-anchor="start" x="8" y="-134.5" font-family="Helvetica,sans-Serif" font-size="10.00">+ linkModuleObj()</text>
<text text-anchor="start" x="8" y="-123.5" font-family="Helvetica,sans-Serif" font-size="10.00">+ ApplicationExceptionHandler()</text>
</a>
</g>
</g>
<!-- Node4&#45;&gt;Node3 -->
<g id="edge1" class="edge"><title>Node4&#45;&gt;Node3</title>
<path fill="none" stroke="midnightblue" d="M163.918,-115.928C182.355,-99.2828 200.885,-82.5525 216.233,-68.6949"/>
<polygon fill="none" stroke="midnightblue" points="161.109,-113.749 156.032,-123.049 165.8,-118.945 161.109,-113.749"/>
</g>
<!-- Node5 -->
<g id="node3" class="node"><title>Node5</title>
<g id="a_node3"><a xlink:href="class_m_d_s___core_lib_1_1_m_d_s___user_module.html" target="_top" xlink:title=" ">
<polygon fill="white" stroke="black" points="174,-166 174,-223 332,-223 332,-166 174,-166"/>
<text text-anchor="middle" x="253" y="-211" font-family="Helvetica,sans-Serif" font-size="10.00">MDS_CoreLib.MDS_UserModule</text>
<polyline fill="none" stroke="black" points="174,-204 332,-204 "/>
<text text-anchor="middle" x="253" y="-192" font-family="Helvetica,sans-Serif" font-size="10.00"> </text>
<polyline fill="none" stroke="black" points="174,-185 332,-185 "/>
<text text-anchor="start" x="182" y="-173" font-family="Helvetica,sans-Serif" font-size="10.00">+ MDS_UserModule()</text>
</a>
</g>
</g>
<!-- Node5&#45;&gt;Node3 -->
<g id="edge2" class="edge"><title>Node5&#45;&gt;Node3</title>
<path fill="none" stroke="#404040" d="M253,-165.979C253,-142.517 253,-108.326 253,-80.8301"/>
<polygon fill="none" stroke="#404040" points="253,-80.7303 249,-74.7304 253,-68.7303 257,-74.7303 253,-80.7303"/>
<text text-anchor="middle" x="282.5" y="-90" font-family="Helvetica,sans-Serif" font-size="10.00"> #userModule</text>
</g>
<!-- Node6 -->
<g id="node4" class="node"><title>Node6</title>
<g id="a_node4"><a xlink:href="class_clean___base_lib_1_1_base_class___module.html" target="_top" xlink:title="BaseClass_Module abstract class is the fundamental executional element of the modular clean system.">
<polygon fill="white" stroke="black" points="297.5,-310.5 297.5,-444.5 432.5,-444.5 432.5,-310.5 297.5,-310.5"/>
<text text-anchor="start" x="305.5" y="-432.5" font-family="Helvetica,sans-Serif" font-size="10.00">Clean_BaseLib::BaseClass</text>
<text text-anchor="middle" x="365" y="-421.5" font-family="Helvetica,sans-Serif" font-size="10.00">_Module</text>
<polyline fill="none" stroke="black" points="297.5,-414.5 432.5,-414.5 "/>
<text text-anchor="start" x="305.5" y="-402.5" font-family="Helvetica,sans-Serif" font-size="10.00">+ IsInitialized</text>
<text text-anchor="start" x="305.5" y="-391.5" font-family="Helvetica,sans-Serif" font-size="10.00">+ ShouldExecute</text>
<text text-anchor="start" x="305.5" y="-380.5" font-family="Helvetica,sans-Serif" font-size="10.00">+ InitThreadID</text>
<polyline fill="none" stroke="black" points="297.5,-373.5 432.5,-373.5 "/>
<text text-anchor="start" x="305.5" y="-361.5" font-family="Helvetica,sans-Serif" font-size="10.00">+ BaseClass_Module()</text>
<text text-anchor="start" x="305.5" y="-350.5" font-family="Helvetica,sans-Serif" font-size="10.00">+ BaseClass_Module()</text>
<text text-anchor="start" x="305.5" y="-339.5" font-family="Helvetica,sans-Serif" font-size="10.00">+ mainInit()</text>
<text text-anchor="start" x="305.5" y="-328.5" font-family="Helvetica,sans-Serif" font-size="10.00">+ mainLoop()</text>
<text text-anchor="start" x="305.5" y="-317.5" font-family="Helvetica,sans-Serif" font-size="10.00"># linkModuleExeSys()</text>
</a>
</g>
</g>
<!-- Node6&#45;&gt;Node5 -->
<g id="edge3" class="edge"><title>Node6&#45;&gt;Node5</title>
<path fill="none" stroke="midnightblue" d="M318.797,-301.832C301.585,-274.016 283.098,-244.141 270.117,-223.162"/>
<polygon fill="none" stroke="midnightblue" points="315.852,-303.725 324.09,-310.387 321.804,-300.041 315.852,-303.725"/>
</g>
<!-- Node7 -->
<g id="node5" class="node"><title>Node7</title>
<g id="a_node5"><a xlink:href="class_m_d_s___core_lib_1_1_m_d_s___sandbox_module.html" target="_top" xlink:title=" ">
<polygon fill="white" stroke="black" points="350,-166 350,-223 526,-223 526,-166 350,-166"/>
<text text-anchor="middle" x="438" y="-211" font-family="Helvetica,sans-Serif" font-size="10.00">MDS_CoreLib.MDS_SandboxModule</text>
<polyline fill="none" stroke="black" points="350,-204 526,-204 "/>
<text text-anchor="middle" x="438" y="-192" font-family="Helvetica,sans-Serif" font-size="10.00"> </text>
<polyline fill="none" stroke="black" points="350,-185 526,-185 "/>
<text text-anchor="middle" x="438" y="-173" font-family="Helvetica,sans-Serif" font-size="10.00"> </text>
</a>
</g>
</g>
<!-- Node6&#45;&gt;Node7 -->
<g id="edge5" class="edge"><title>Node6&#45;&gt;Node7</title>
<path fill="none" stroke="midnightblue" d="M395.405,-301.112C406.541,-273.502 418.455,-243.96 426.844,-223.162"/>
<polygon fill="none" stroke="midnightblue" points="392.159,-299.803 391.665,-310.387 398.651,-302.422 392.159,-299.803"/>
</g>
<!-- Node7&#45;&gt;Node3 -->
<g id="edge4" class="edge"><title>Node7&#45;&gt;Node3</title>
<path fill="none" stroke="#404040" d="M406.898,-165.858C382.387,-144.194 347.249,-113.4 316,-87 311.882,-83.5214 307.593,-79.9356 303.274,-76.3519"/>
<polygon fill="none" stroke="#404040" points="303.081,-76.1926 295.907,-75.457 293.827,-68.5524 301.001,-69.288 303.081,-76.1926"/>
<text text-anchor="middle" x="366.5" y="-90" font-family="Helvetica,sans-Serif" font-size="10.00"> #sandBoxModule</text>
</g>
</g>
</svg>
