<?xml version="1.0" encoding="UTF-8" standalone="no"?>
<!DOCTYPE svg PUBLIC "-//W3C//DTD SVG 1.1//EN"
 "http://www.w3.org/Graphics/SVG/1.1/DTD/svg11.dtd">
<!-- Generated by graphviz version 2.38.0 (20140413.2041)
 -->
<!-- Title: MDS_Application.ModuleExecutionSystem_MDS Pages: 1 -->
<svg width="534pt" height="559pt"
 viewBox="0.00 0.00 534.00 559.00" xmlns="http://www.w3.org/2000/svg" xmlns:xlink="http://www.w3.org/1999/xlink">
<g id="graph0" class="graph" transform="scale(1 1) rotate(0) translate(4 555)">
<title>MDS_Application.ModuleExecutionSystem_MDS</title>
<polygon fill="white" stroke="none" points="-4,4 -4,-555 530,-555 530,4 -4,4"/>
<!-- Node3 -->
<g id="node1" class="node"><title>Node3</title>
<g id="a_node1"><a xlink:title=" ">
<polygon fill="#bfbfbf" stroke="black" points="168,-0.5 168,-68.5 338,-68.5 338,-0.5 168,-0.5"/>
<text text-anchor="start" x="176" y="-56.5" font-family="Helvetica,sans-Serif" font-size="10.00">MDS_Application.ModuleExecution</text>
<text text-anchor="middle" x="253" y="-45.5" font-family="Helvetica,sans-Serif" font-size="10.00">System_MDS</text>
<polyline fill="none" stroke="black" points="168,-38.5 338,-38.5 "/>
<text text-anchor="middle" x="253" y="-26.5" font-family="Helvetica,sans-Serif" font-size="10.00"> </text>
<polyline fill="none" stroke="black" points="168,-19.5 338,-19.5 "/>
<text text-anchor="middle" x="253" y="-7.5" font-family="Helvetica,sans-Serif" font-size="10.00"> </text>
</a>
</g>
</g>
<!-- Node4 -->
<g id="node2" class="node"><title>Node4</title>
<g id="a_node2"><a xlink:href="class_m_d_s___core_lib_1_1_m_d_s___execution_system.html" target="_top" xlink:title=" ">
<polygon fill="white" stroke="black" points="176.5,-106.5 176.5,-174.5 329.5,-174.5 329.5,-106.5 176.5,-106.5"/>
<text text-anchor="start" x="184.5" y="-162.5" font-family="Helvetica,sans-Serif" font-size="10.00">MDS_CoreLib::MDS_Execution</text>
<text text-anchor="middle" x="253" y="-151.5" font-family="Helvetica,sans-Serif" font-size="10.00">System</text>
<polyline fill="none" stroke="black" points="176.5,-144.5 329.5,-144.5 "/>
<text text-anchor="middle" x="253" y="-132.5" font-family="Helvetica,sans-Serif" font-size="10.00"> </text>
<polyline fill="none" stroke="black" points="176.5,-125.5 329.5,-125.5 "/>
<text text-anchor="middle" x="253" y="-113.5" font-family="Helvetica,sans-Serif" font-size="10.00"> </text>
</a>
</g>
</g>
<!-- Node4&#45;&gt;Node3 -->
<g id="edge1" class="edge"><title>Node4&#45;&gt;Node3</title>
<path fill="none" stroke="midnightblue" d="M253,-96.1737C253,-87.0025 253,-77.4608 253,-68.7336"/>
<polygon fill="none" stroke="midnightblue" points="249.5,-96.3078 253,-106.308 256.5,-96.3078 249.5,-96.3078"/>
</g>
<!-- Node5 -->
<g id="node3" class="node"><title>Node5</title>
<g id="a_node3"><a xlink:href="class_clean___base_lib_1_1_base_class___module_execution_system.html" target="_top" xlink:title="Abstract class defining core modular and clean concepts">
<polygon fill="white" stroke="black" points="0,-222.5 0,-378.5 156,-378.5 156,-222.5 0,-222.5"/>
<text text-anchor="start" x="8" y="-366.5" font-family="Helvetica,sans-Serif" font-size="10.00">Clean_BaseLib::BaseClass</text>
<text text-anchor="middle" x="78" y="-355.5" font-family="Helvetica,sans-Serif" font-size="10.00">_ModuleExecutionSystem</text>
<polyline fill="none" stroke="black" points="0,-348.5 156,-348.5 "/>
<text text-anchor="start" x="8" y="-336.5" font-family="Helvetica,sans-Serif" font-size="10.00">+ configured_failcount</text>
<text text-anchor="start" x="8" y="-325.5" font-family="Helvetica,sans-Serif" font-size="10.00">+ configured_ms_mainWD</text>
<text text-anchor="start" x="8" y="-314.5" font-family="Helvetica,sans-Serif" font-size="10.00">+ configured_ms_exeLoopSleep</text>
<text text-anchor="start" x="8" y="-303.5" font-family="Helvetica,sans-Serif" font-size="10.00">+ Threads</text>
<text text-anchor="start" x="8" y="-292.5" font-family="Helvetica,sans-Serif" font-size="10.00">+ CoreModules</text>
<polyline fill="none" stroke="black" points="0,-285.5 156,-285.5 "/>
<text text-anchor="start" x="8" y="-273.5" font-family="Helvetica,sans-Serif" font-size="10.00">+ BaseClass_ModuleExecution</text>
<text text-anchor="start" x="8" y="-262.5" font-family="Helvetica,sans-Serif" font-size="10.00">System()</text>
<text text-anchor="start" x="8" y="-251.5" font-family="Helvetica,sans-Serif" font-size="10.00">+ Execute()</text>
<text text-anchor="start" x="8" y="-240.5" font-family="Helvetica,sans-Serif" font-size="10.00">+ linkModuleObj()</text>
<text text-anchor="start" x="8" y="-229.5" font-family="Helvetica,sans-Serif" font-size="10.00">+ ApplicationExceptionHandler()</text>
</a>
</g>
</g>
<!-- Node5&#45;&gt;Node4 -->
<g id="edge2" class="edge"><title>Node5&#45;&gt;Node4</title>
<path fill="none" stroke="midnightblue" d="M163.918,-221.928C182.355,-205.283 200.885,-188.552 216.233,-174.695"/>
<polygon fill="none" stroke="midnightblue" points="161.109,-219.749 156.032,-229.049 165.8,-224.945 161.109,-219.749"/>
</g>
<!-- Node6 -->
<g id="node4" class="node"><title>Node6</title>
<g id="a_node4"><a xlink:href="class_m_d_s___core_lib_1_1_m_d_s___user_module.html" target="_top" xlink:title=" ">
<polygon fill="white" stroke="black" points="174,-272 174,-329 332,-329 332,-272 174,-272"/>
<text text-anchor="middle" x="253" y="-317" font-family="Helvetica,sans-Serif" font-size="10.00">MDS_CoreLib.MDS_UserModule</text>
<polyline fill="none" stroke="black" points="174,-310 332,-310 "/>
<text text-anchor="middle" x="253" y="-298" font-family="Helvetica,sans-Serif" font-size="10.00"> </text>
<polyline fill="none" stroke="black" points="174,-291 332,-291 "/>
<text text-anchor="start" x="182" y="-279" font-family="Helvetica,sans-Serif" font-size="10.00">+ MDS_UserModule()</text>
</a>
</g>
</g>
<!-- Node6&#45;&gt;Node4 -->
<g id="edge3" class="edge"><title>Node6&#45;&gt;Node4</title>
<path fill="none" stroke="#404040" d="M253,-271.979C253,-248.517 253,-214.326 253,-186.83"/>
<polygon fill="none" stroke="#404040" points="253,-186.73 249,-180.73 253,-174.73 257,-180.73 253,-186.73"/>
<text text-anchor="middle" x="282.5" y="-196" font-family="Helvetica,sans-Serif" font-size="10.00"> #userModule</text>
</g>
<!-- Node7 -->
<g id="node5" class="node"><title>Node7</title>
<g id="a_node5"><a xlink:href="class_clean___base_lib_1_1_base_class___module.html" target="_top" xlink:title="BaseClass_Module abstract class is the fundamental executional element of the modular clean system.">
<polygon fill="white" stroke="black" points="297.5,-416.5 297.5,-550.5 432.5,-550.5 432.5,-416.5 297.5,-416.5"/>
<text text-anchor="start" x="305.5" y="-538.5" font-family="Helvetica,sans-Serif" font-size="10.00">Clean_BaseLib::BaseClass</text>
<text text-anchor="middle" x="365" y="-527.5" font-family="Helvetica,sans-Serif" font-size="10.00">_Module</text>
<polyline fill="none" stroke="black" points="297.5,-520.5 432.5,-520.5 "/>
<text text-anchor="start" x="305.5" y="-508.5" font-family="Helvetica,sans-Serif" font-size="10.00">+ IsInitialized</text>
<text text-anchor="start" x="305.5" y="-497.5" font-family="Helvetica,sans-Serif" font-size="10.00">+ ShouldExecute</text>
<text text-anchor="start" x="305.5" y="-486.5" font-family="Helvetica,sans-Serif" font-size="10.00">+ InitThreadID</text>
<polyline fill="none" stroke="black" points="297.5,-479.5 432.5,-479.5 "/>
<text text-anchor="start" x="305.5" y="-467.5" font-family="Helvetica,sans-Serif" font-size="10.00">+ BaseClass_Module()</text>
<text text-anchor="start" x="305.5" y="-456.5" font-family="Helvetica,sans-Serif" font-size="10.00">+ BaseClass_Module()</text>
<text text-anchor="start" x="305.5" y="-445.5" font-family="Helvetica,sans-Serif" font-size="10.00">+ mainInit()</text>
<text text-anchor="start" x="305.5" y="-434.5" font-family="Helvetica,sans-Serif" font-size="10.00">+ mainLoop()</text>
<text text-anchor="start" x="305.5" y="-423.5" font-family="Helvetica,sans-Serif" font-size="10.00"># linkModuleExeSys()</text>
</a>
</g>
</g>
<!-- Node7&#45;&gt;Node6 -->
<g id="edge4" class="edge"><title>Node7&#45;&gt;Node6</title>
<path fill="none" stroke="midnightblue" d="M318.797,-407.832C301.585,-380.016 283.098,-350.141 270.117,-329.162"/>
<polygon fill="none" stroke="midnightblue" points="315.852,-409.725 324.09,-416.387 321.804,-406.041 315.852,-409.725"/>
</g>
<!-- Node8 -->
<g id="node6" class="node"><title>Node8</title>
<g id="a_node6"><a xlink:href="class_m_d_s___core_lib_1_1_m_d_s___sandbox_module.html" target="_top" xlink:title=" ">
<polygon fill="white" stroke="black" points="350,-272 350,-329 526,-329 526,-272 350,-272"/>
<text text-anchor="middle" x="438" y="-317" font-family="Helvetica,sans-Serif" font-size="10.00">MDS_CoreLib.MDS_SandboxModule</text>
<polyline fill="none" stroke="black" points="350,-310 526,-310 "/>
<text text-anchor="middle" x="438" y="-298" font-family="Helvetica,sans-Serif" font-size="10.00"> </text>
<polyline fill="none" stroke="black" points="350,-291 526,-291 "/>
<text text-anchor="middle" x="438" y="-279" font-family="Helvetica,sans-Serif" font-size="10.00"> </text>
</a>
</g>
</g>
<!-- Node7&#45;&gt;Node8 -->
<g id="edge6" class="edge"><title>Node7&#45;&gt;Node8</title>
<path fill="none" stroke="midnightblue" d="M395.405,-407.112C406.541,-379.502 418.455,-349.96 426.844,-329.162"/>
<polygon fill="none" stroke="midnightblue" points="392.159,-405.803 391.665,-416.387 398.651,-408.422 392.159,-405.803"/>
</g>
<!-- Node8&#45;&gt;Node4 -->
<g id="edge5" class="edge"><title>Node8&#45;&gt;Node4</title>
<path fill="none" stroke="#404040" d="M406.898,-271.858C382.387,-250.194 347.249,-219.4 316,-193 311.882,-189.521 307.593,-185.936 303.274,-182.352"/>
<polygon fill="none" stroke="#404040" points="303.081,-182.193 295.907,-181.457 293.827,-174.552 301.001,-175.288 303.081,-182.193"/>
<text text-anchor="middle" x="366.5" y="-196" font-family="Helvetica,sans-Serif" font-size="10.00"> #sandBoxModule</text>
</g>
</g>
</svg>
