<?xml version="1.0" encoding="UTF-8" standalone="no"?>
<!DOCTYPE svg PUBLIC "-//W3C//DTD SVG 1.1//EN"
 "http://www.w3.org/Graphics/SVG/1.1/DTD/svg11.dtd">
<!-- Generated by graphviz version 2.38.0 (20140413.2041)
 -->
<!-- Title: MDS_CoreLib.MDS_UserModule Pages: 1 -->
<svg width="166pt" height="342pt"
 viewBox="0.00 0.00 166.00 342.00" xmlns="http://www.w3.org/2000/svg" xmlns:xlink="http://www.w3.org/1999/xlink">
<g id="graph0" class="graph" transform="scale(1 1) rotate(0) translate(4 338)">
<title>MDS_CoreLib.MDS_UserModule</title>
<polygon fill="white" stroke="none" points="-4,4 -4,-338 162,-338 162,4 -4,4"/>
<!-- Node0 -->
<g id="node1" class="node"><title>Node0</title>
<g id="a_node1"><a xlink:title=" ">
<polygon fill="#bfbfbf" stroke="black" points="0,-105.5 0,-162.5 158,-162.5 158,-105.5 0,-105.5"/>
<text text-anchor="middle" x="79" y="-150.5" font-family="Helvetica,sans-Serif" font-size="10.00">MDS_CoreLib.MDS_UserModule</text>
<polyline fill="none" stroke="black" points="0,-143.5 158,-143.5 "/>
<text text-anchor="middle" x="79" y="-131.5" font-family="Helvetica,sans-Serif" font-size="10.00"> </text>
<polyline fill="none" stroke="black" points="0,-124.5 158,-124.5 "/>
<text text-anchor="start" x="8" y="-112.5" font-family="Helvetica,sans-Serif" font-size="10.00">+ MDS_UserModule()</text>
</a>
</g>
</g>
<!-- Node2 -->
<g id="node3" class="node"><title>Node2</title>
<g id="a_node3"><a xlink:href="class_m_d_s___application_1_1_user_module___s_t_d___i_o.html" target="_top" xlink:title=" ">
<polygon fill="white" stroke="black" points="6,-0.5 6,-68.5 152,-68.5 152,-0.5 6,-0.5"/>
<text text-anchor="start" x="14" y="-56.5" font-family="Helvetica,sans-Serif" font-size="10.00">MDS_Application.UserModule</text>
<text text-anchor="middle" x="79" y="-45.5" font-family="Helvetica,sans-Serif" font-size="10.00">_STD_IO</text>
<polyline fill="none" stroke="black" points="6,-38.5 152,-38.5 "/>
<text text-anchor="middle" x="79" y="-26.5" font-family="Helvetica,sans-Serif" font-size="10.00"> </text>
<polyline fill="none" stroke="black" points="6,-19.5 152,-19.5 "/>
<text text-anchor="start" x="14" y="-7.5" font-family="Helvetica,sans-Serif" font-size="10.00">+ UserModule_STD_IO()</text>
</a>
</g>
</g>
<!-- Node0&#45;&gt;Node2 -->
<g id="edge2" class="edge"><title>Node0&#45;&gt;Node2</title>
<path fill="none" stroke="midnightblue" d="M79,-95.0631C79,-86.3933 79,-77.2431 79,-68.7855"/>
<polygon fill="none" stroke="midnightblue" points="75.5001,-95.3212 79,-105.321 82.5001,-95.3212 75.5001,-95.3212"/>
</g>
<!-- Node1 -->
<g id="node2" class="node"><title>Node1</title>
<g id="a_node2"><a xlink:href="class_clean___base_lib_1_1_base_class___module.html" target="_top" xlink:title="BaseClass_Module abstract class is the fundamental executional element of the modular clean system.">
<polygon fill="white" stroke="black" points="11.5,-199.5 11.5,-333.5 146.5,-333.5 146.5,-199.5 11.5,-199.5"/>
<text text-anchor="start" x="19.5" y="-321.5" font-family="Helvetica,sans-Serif" font-size="10.00">Clean_BaseLib::BaseClass</text>
<text text-anchor="middle" x="79" y="-310.5" font-family="Helvetica,sans-Serif" font-size="10.00">_Module</text>
<polyline fill="none" stroke="black" points="11.5,-303.5 146.5,-303.5 "/>
<text text-anchor="start" x="19.5" y="-291.5" font-family="Helvetica,sans-Serif" font-size="10.00">+ IsInitialized</text>
<text text-anchor="start" x="19.5" y="-280.5" font-family="Helvetica,sans-Serif" font-size="10.00">+ ShouldExecute</text>
<text text-anchor="start" x="19.5" y="-269.5" font-family="Helvetica,sans-Serif" font-size="10.00">+ InitThreadID</text>
<polyline fill="none" stroke="black" points="11.5,-262.5 146.5,-262.5 "/>
<text text-anchor="start" x="19.5" y="-250.5" font-family="Helvetica,sans-Serif" font-size="10.00">+ BaseClass_Module()</text>
<text text-anchor="start" x="19.5" y="-239.5" font-family="Helvetica,sans-Serif" font-size="10.00">+ BaseClass_Module()</text>
<text text-anchor="start" x="19.5" y="-228.5" font-family="Helvetica,sans-Serif" font-size="10.00">+ mainInit()</text>
<text text-anchor="start" x="19.5" y="-217.5" font-family="Helvetica,sans-Serif" font-size="10.00">+ mainLoop()</text>
<text text-anchor="start" x="19.5" y="-206.5" font-family="Helvetica,sans-Serif" font-size="10.00"># linkModuleExeSys()</text>
</a>
</g>
</g>
<!-- Node1&#45;&gt;Node0 -->
<g id="edge1" class="edge"><title>Node1&#45;&gt;Node0</title>
<path fill="none" stroke="midnightblue" d="M79,-189.456C79,-179.909 79,-170.678 79,-162.613"/>
<polygon fill="none" stroke="midnightblue" points="75.5001,-189.485 79,-199.485 82.5001,-189.485 75.5001,-189.485"/>
</g>
</g>
</svg>
