<?xml version="1.0" encoding="UTF-8" standalone="no"?>
<!DOCTYPE svg PUBLIC "-//W3C//DTD SVG 1.1//EN"
 "http://www.w3.org/Graphics/SVG/1.1/DTD/svg11.dtd">
<!-- Generated by graphviz version 2.38.0 (20140413.2041)
 -->
<!-- Title: Graphical Class Hierarchy Pages: 1 -->
<svg width="418pt" height="137pt"
 viewBox="0.00 0.00 418.00 137.00" xmlns="http://www.w3.org/2000/svg" xmlns:xlink="http://www.w3.org/1999/xlink">
<g id="graph0" class="graph" transform="scale(1 1) rotate(0) translate(4 133)">
<title>Graphical Class Hierarchy</title>
<polygon fill="white" stroke="none" points="-4,4 -4,-133 414,-133 414,4 -4,4"/>
<!-- Node3 -->
<g id="node1" class="node"><title>Node3</title>
<g id="a_node1"><a xlink:title=" ">
<polygon fill="white" stroke="#bfbfbf" points="0,-79 0,-98 69,-98 69,-79 0,-79"/>
<text text-anchor="middle" x="34.5" y="-86" font-family="Helvetica,sans-Serif" font-size="10.00">ISerializable</text>
</a>
</g>
</g>
<!-- Node0 -->
<g id="node2" class="node"><title>Node0</title>
<g id="a_node2"><a xlink:href="class_clean___base_lib_1_1_base_class___serial_value.html" target="_top" xlink:title="BaseClass_SerialValue is the abstract class for values moved in packets">
<polygon fill="white" stroke="black" points="107.5,-98.5 107.5,-128.5 239.5,-128.5 239.5,-98.5 107.5,-98.5"/>
<text text-anchor="start" x="115.5" y="-116.5" font-family="Helvetica,sans-Serif" font-size="10.00">Clean_BaseLib.BaseClass</text>
<text text-anchor="middle" x="173.5" y="-105.5" font-family="Helvetica,sans-Serif" font-size="10.00">_SerialValue</text>
</a>
</g>
</g>
<!-- Node3&#45;&gt;Node0 -->
<g id="edge1" class="edge"><title>Node3&#45;&gt;Node0</title>
<path fill="none" stroke="midnightblue" d="M78.9386,-96.4268C88.0223,-98.0844 97.7879,-99.8664 107.461,-101.632"/>
<polygon fill="midnightblue" stroke="midnightblue" points="79.4799,-92.9678 69.014,-94.6157 78.2232,-99.8541 79.4799,-92.9678"/>
</g>
<!-- Node5 -->
<g id="node3" class="node"><title>Node5</title>
<g id="a_node3"><a xlink:href="interface_clean___base_lib_1_1_i_serial_value_collection.html" target="_top" xlink:title="The interface for packets, headers, and payloads">
<polygon fill="white" stroke="black" points="105,-49.5 105,-79.5 242,-79.5 242,-49.5 105,-49.5"/>
<text text-anchor="start" x="113" y="-67.5" font-family="Helvetica,sans-Serif" font-size="10.00">Clean_BaseLib.ISerialValue</text>
<text text-anchor="middle" x="173.5" y="-56.5" font-family="Helvetica,sans-Serif" font-size="10.00">Collection</text>
</a>
</g>
</g>
<!-- Node3&#45;&gt;Node5 -->
<g id="edge2" class="edge"><title>Node3&#45;&gt;Node5</title>
<path fill="none" stroke="midnightblue" d="M79.0603,-80.869C87.2584,-79.4328 96.0084,-77.9 104.742,-76.37"/>
<polygon fill="midnightblue" stroke="midnightblue" points="78.26,-77.4558 69.014,-82.6289 79.4679,-84.3508 78.26,-77.4558"/>
</g>
<!-- Node6 -->
<g id="node4" class="node"><title>Node6</title>
<g id="a_node4"><a xlink:href="class_clean___base_lib_1_1_base_class___packet.html" target="_top" xlink:title="BaseClass_Packet is the abstract packet class implementing the ISerialValueCollection interface.">
<polygon fill="white" stroke="black" points="278,-98.5 278,-128.5 410,-128.5 410,-98.5 278,-98.5"/>
<text text-anchor="start" x="286" y="-116.5" font-family="Helvetica,sans-Serif" font-size="10.00">Clean_BaseLib.BaseClass</text>
<text text-anchor="middle" x="344" y="-105.5" font-family="Helvetica,sans-Serif" font-size="10.00">_Packet</text>
</a>
</g>
</g>
<!-- Node5&#45;&gt;Node6 -->
<g id="edge3" class="edge"><title>Node5&#45;&gt;Node6</title>
<path fill="none" stroke="midnightblue" d="M236.034,-82.3941C254.157,-87.6644 273.796,-93.3755 291.241,-98.4484"/>
<polygon fill="midnightblue" stroke="midnightblue" points="237.01,-79.0331 226.43,-79.6014 235.055,-85.7546 237.01,-79.0331"/>
</g>
<!-- Node7 -->
<g id="node5" class="node"><title>Node7</title>
<g id="a_node5"><a xlink:href="class_clean___base_lib_1_1_base_class___packet_header.html" target="_top" xlink:title="BaseClass_PacketHeader is the abstract header class used for routing and identification of the packet...">
<polygon fill="white" stroke="black" points="278,-49.5 278,-79.5 410,-79.5 410,-49.5 278,-49.5"/>
<text text-anchor="start" x="286" y="-67.5" font-family="Helvetica,sans-Serif" font-size="10.00">Clean_BaseLib.BaseClass</text>
<text text-anchor="middle" x="344" y="-56.5" font-family="Helvetica,sans-Serif" font-size="10.00">_PacketHeader</text>
</a>
</g>
</g>
<!-- Node5&#45;&gt;Node7 -->
<g id="edge4" class="edge"><title>Node5&#45;&gt;Node7</title>
<path fill="none" stroke="midnightblue" d="M252.116,-64.5C260.734,-64.5 269.445,-64.5 277.886,-64.5"/>
<polygon fill="midnightblue" stroke="midnightblue" points="252.065,-61.0001 242.065,-64.5 252.064,-68.0001 252.065,-61.0001"/>
</g>
<!-- Node8 -->
<g id="node6" class="node"><title>Node8</title>
<g id="a_node6"><a xlink:href="class_clean___base_lib_1_1_base_class___packet_payload.html" target="_top" xlink:title="BaseClass_PacketPayload is the abstract payload class used to transfer serialized values through the ...">
<polygon fill="white" stroke="black" points="278,-0.5 278,-30.5 410,-30.5 410,-0.5 278,-0.5"/>
<text text-anchor="start" x="286" y="-18.5" font-family="Helvetica,sans-Serif" font-size="10.00">Clean_BaseLib.BaseClass</text>
<text text-anchor="middle" x="344" y="-7.5" font-family="Helvetica,sans-Serif" font-size="10.00">_PacketPayload</text>
</a>
</g>
</g>
<!-- Node5&#45;&gt;Node8 -->
<g id="edge5" class="edge"><title>Node5&#45;&gt;Node8</title>
<path fill="none" stroke="midnightblue" d="M236.034,-46.6059C254.157,-41.3356 273.796,-35.6245 291.241,-30.5516"/>
<polygon fill="midnightblue" stroke="midnightblue" points="235.055,-43.2454 226.43,-49.3986 237.01,-49.9669 235.055,-43.2454"/>
</g>
</g>
</svg>
