<?xml version="1.0" encoding="UTF-8" standalone="no"?>
<!DOCTYPE svg PUBLIC "-//W3C//DTD SVG 1.1//EN"
 "http://www.w3.org/Graphics/SVG/1.1/DTD/svg11.dtd">
<!-- Generated by graphviz version 2.38.0 (20140413.2041)
 -->
<!-- Title: Graphical Class Hierarchy Pages: 1 -->
<svg width="534pt" height="220pt"
 viewBox="0.00 0.00 534.00 220.00" xmlns="http://www.w3.org/2000/svg" xmlns:xlink="http://www.w3.org/1999/xlink">
<g id="graph0" class="graph" transform="scale(1 1) rotate(0) translate(4 216)">
<title>Graphical Class Hierarchy</title>
<polygon fill="white" stroke="none" points="-4,4 -4,-216 530,-216 530,4 -4,4"/>
<!-- Node0 -->
<g id="node1" class="node"><title>Node0</title>
<g id="a_node1"><a xlink:href="class_clean___base_lib_1_1_base_class___module.html" target="_top" xlink:title="BaseClass_Module abstract class is the fundamental executional element of the modular clean system.">
<polygon fill="white" stroke="black" points="0,-88.5 0,-118.5 132,-118.5 132,-88.5 0,-88.5"/>
<text text-anchor="start" x="8" y="-106.5" font-family="Helvetica,sans-Serif" font-size="10.00">Clean_BaseLib.BaseClass</text>
<text text-anchor="middle" x="66" y="-95.5" font-family="Helvetica,sans-Serif" font-size="10.00">_Module</text>
</a>
</g>
</g>
<!-- Node1 -->
<g id="node2" class="node"><title>Node1</title>
<g id="a_node2"><a xlink:href="class_m_d_s___code_generation_1_1_m_d_s___code_gen_module.html" target="_top" xlink:title=" ">
<polygon fill="white" stroke="black" points="187,-181.5 187,-211.5 325,-211.5 325,-181.5 187,-181.5"/>
<text text-anchor="start" x="195" y="-199.5" font-family="Helvetica,sans-Serif" font-size="10.00">MDS_CodeGeneration.MDS</text>
<text text-anchor="middle" x="256" y="-188.5" font-family="Helvetica,sans-Serif" font-size="10.00">_CodeGenModule</text>
</a>
</g>
</g>
<!-- Node0&#45;&gt;Node1 -->
<g id="edge1" class="edge"><title>Node0&#45;&gt;Node1</title>
<path fill="none" stroke="midnightblue" d="M93.3397,-125.098C112.91,-140.217 140.814,-159.892 168,-172.5 175.249,-175.862 183.063,-178.837 190.928,-181.446"/>
<polygon fill="midnightblue" stroke="midnightblue" points="95.2536,-122.15 85.2286,-118.723 90.9279,-127.654 95.2536,-122.15"/>
</g>
<!-- Node2 -->
<g id="node3" class="node"><title>Node2</title>
<g id="a_node3"><a xlink:href="class_m_d_s___core_lib_1_1_m_d_s___code_generation_module.html" target="_top" xlink:title=" ">
<polygon fill="white" stroke="black" points="168,-132.5 168,-162.5 344,-162.5 344,-132.5 168,-132.5"/>
<text text-anchor="start" x="176" y="-150.5" font-family="Helvetica,sans-Serif" font-size="10.00">MDS_CoreLib.MDS_CodeGeneration</text>
<text text-anchor="middle" x="256" y="-139.5" font-family="Helvetica,sans-Serif" font-size="10.00">Module</text>
</a>
</g>
</g>
<!-- Node0&#45;&gt;Node2 -->
<g id="edge2" class="edge"><title>Node0&#45;&gt;Node2</title>
<path fill="none" stroke="midnightblue" d="M141.247,-120.877C157.63,-124.711 174.851,-128.742 190.797,-132.474"/>
<polygon fill="midnightblue" stroke="midnightblue" points="141.708,-117.39 131.173,-118.519 140.112,-124.206 141.708,-117.39"/>
</g>
<!-- Node3 -->
<g id="node4" class="node"><title>Node3</title>
<g id="a_node4"><a xlink:href="class_m_d_s___core_lib_1_1_m_d_s___sandbox_module.html" target="_top" xlink:title=" ">
<polygon fill="white" stroke="black" points="168,-94 168,-113 344,-113 344,-94 168,-94"/>
<text text-anchor="middle" x="256" y="-101" font-family="Helvetica,sans-Serif" font-size="10.00">MDS_CoreLib.MDS_SandboxModule</text>
</a>
</g>
</g>
<!-- Node0&#45;&gt;Node3 -->
<g id="edge3" class="edge"><title>Node0&#45;&gt;Node3</title>
<path fill="none" stroke="midnightblue" d="M142.298,-103.5C150.654,-103.5 159.215,-103.5 167.703,-103.5"/>
<polygon fill="midnightblue" stroke="midnightblue" points="142.226,-100 132.226,-103.5 142.226,-107 142.226,-100"/>
</g>
<!-- Node4 -->
<g id="node5" class="node"><title>Node4</title>
<g id="a_node5"><a xlink:href="class_m_d_s___core_lib_1_1_m_d_s___simulation_module.html" target="_top" xlink:title=" ">
<polygon fill="white" stroke="black" points="180,-44.5 180,-74.5 332,-74.5 332,-44.5 180,-44.5"/>
<text text-anchor="start" x="188" y="-62.5" font-family="Helvetica,sans-Serif" font-size="10.00">MDS_CoreLib.MDS_Simulation</text>
<text text-anchor="middle" x="256" y="-51.5" font-family="Helvetica,sans-Serif" font-size="10.00">Module</text>
</a>
</g>
</g>
<!-- Node0&#45;&gt;Node4 -->
<g id="edge4" class="edge"><title>Node0&#45;&gt;Node4</title>
<path fill="none" stroke="midnightblue" d="M141.247,-86.1231C157.63,-82.2888 174.851,-78.2582 190.797,-74.5262"/>
<polygon fill="midnightblue" stroke="midnightblue" points="140.112,-82.7939 131.173,-88.4808 141.708,-89.6098 140.112,-82.7939"/>
</g>
<!-- Node5 -->
<g id="node6" class="node"><title>Node5</title>
<g id="a_node6"><a xlink:href="class_m_d_s___core_lib_1_1_m_d_s___user_module.html" target="_top" xlink:title=" ">
<polygon fill="white" stroke="black" points="177,-6 177,-25 335,-25 335,-6 177,-6"/>
<text text-anchor="middle" x="256" y="-13" font-family="Helvetica,sans-Serif" font-size="10.00">MDS_CoreLib.MDS_UserModule</text>
</a>
</g>
</g>
<!-- Node0&#45;&gt;Node5 -->
<g id="edge5" class="edge"><title>Node0&#45;&gt;Node5</title>
<path fill="none" stroke="midnightblue" d="M93.2307,-81.8796C112.748,-66.8166 140.633,-47.3703 168,-35.5 177.811,-31.2447 188.653,-27.8303 199.258,-25.1126"/>
<polygon fill="midnightblue" stroke="midnightblue" points="90.8407,-79.3065 85.1448,-88.2401 95.1685,-84.8083 90.8407,-79.3065"/>
</g>
<!-- Node6 -->
<g id="node7" class="node"><title>Node6</title>
<g id="a_node7"><a xlink:href="class_m_d_s___application_1_1_user_module___s_t_d___i_o.html" target="_top" xlink:title=" ">
<polygon fill="white" stroke="black" points="380,-0.5 380,-30.5 526,-30.5 526,-0.5 380,-0.5"/>
<text text-anchor="start" x="388" y="-18.5" font-family="Helvetica,sans-Serif" font-size="10.00">MDS_Application.UserModule</text>
<text text-anchor="middle" x="453" y="-7.5" font-family="Helvetica,sans-Serif" font-size="10.00">_STD_IO</text>
</a>
</g>
</g>
<!-- Node5&#45;&gt;Node6 -->
<g id="edge6" class="edge"><title>Node5&#45;&gt;Node6</title>
<path fill="none" stroke="midnightblue" d="M345.279,-15.5C356.828,-15.5 368.552,-15.5 379.794,-15.5"/>
<polygon fill="midnightblue" stroke="midnightblue" points="345.19,-12.0001 335.19,-15.5 345.19,-19.0001 345.19,-12.0001"/>
</g>
</g>
</svg>
