<?xml version="1.0" encoding="UTF-8" standalone="no"?>
<!DOCTYPE svg PUBLIC "-//W3C//DTD SVG 1.1//EN"
 "http://www.w3.org/Graphics/SVG/1.1/DTD/svg11.dtd">
<!-- Generated by graphviz version 2.38.0 (20140413.2041)
 -->
<!-- Title: Graphical Class Hierarchy Pages: 1 -->
<svg width="534pt" height="171pt"
 viewBox="0.00 0.00 534.00 171.00" xmlns="http://www.w3.org/2000/svg" xmlns:xlink="http://www.w3.org/1999/xlink">
<g id="graph0" class="graph" transform="scale(1 1) rotate(0) translate(4 167)">
<title>Graphical Class Hierarchy</title>
<polygon fill="white" stroke="none" points="-4,4 -4,-167 530,-167 530,4 -4,4"/>
<!-- Node0 -->
<g id="node1" class="node"><title>Node0</title>
<g id="a_node1"><a xlink:href="d7/d06/class_clean___base_lib_1_1_base_class___module.html" target="_top" xlink:title="BaseClass_Module abstract class is the fundamental executional element of the modular clean system.">
<polygon fill="white" stroke="black" points="0,-66.5 0,-96.5 132,-96.5 132,-66.5 0,-66.5"/>
<text text-anchor="start" x="8" y="-84.5" font-family="Helvetica,sans-Serif" font-size="10.00">Clean_BaseLib.BaseClass</text>
<text text-anchor="middle" x="66" y="-73.5" font-family="Helvetica,sans-Serif" font-size="10.00">_Module</text>
</a>
</g>
</g>
<!-- Node1 -->
<g id="node2" class="node"><title>Node1</title>
<g id="a_node2"><a xlink:href="d3/dd3/class_m_d_s___core_lib_1_1_m_d_s___code_generation_module.html" target="_top" xlink:title=" ">
<polygon fill="white" stroke="black" points="168,-132.5 168,-162.5 344,-162.5 344,-132.5 168,-132.5"/>
<text text-anchor="start" x="176" y="-150.5" font-family="Helvetica,sans-Serif" font-size="10.00">MDS_CoreLib.MDS_CodeGeneration</text>
<text text-anchor="middle" x="256" y="-139.5" font-family="Helvetica,sans-Serif" font-size="10.00">Module</text>
</a>
</g>
</g>
<!-- Node0&#45;&gt;Node1 -->
<g id="edge1" class="edge"><title>Node0&#45;&gt;Node1</title>
<path fill="none" stroke="midnightblue" d="M111.128,-100.595C128.672,-107.874 149.135,-115.981 168,-122.5 177.952,-125.939 188.654,-129.29 199.031,-132.364"/>
<polygon fill="midnightblue" stroke="midnightblue" points="112.287,-97.2857 101.711,-96.6511 109.583,-103.742 112.287,-97.2857"/>
</g>
<!-- Node2 -->
<g id="node3" class="node"><title>Node2</title>
<g id="a_node3"><a xlink:href="d2/df4/class_m_d_s___core_lib_1_1_m_d_s___sandbox_module.html" target="_top" xlink:title=" ">
<polygon fill="white" stroke="black" points="168,-94 168,-113 344,-113 344,-94 168,-94"/>
<text text-anchor="middle" x="256" y="-101" font-family="Helvetica,sans-Serif" font-size="10.00">MDS_CoreLib.MDS_SandboxModule</text>
</a>
</g>
</g>
<!-- Node0&#45;&gt;Node2 -->
<g id="edge2" class="edge"><title>Node0&#45;&gt;Node2</title>
<path fill="none" stroke="midnightblue" d="M142.389,-90.3222C152.676,-91.5259 163.271,-92.7658 173.657,-93.9812"/>
<polygon fill="midnightblue" stroke="midnightblue" points="142.565,-86.8189 132.226,-89.1328 141.751,-93.7714 142.565,-86.8189"/>
</g>
<!-- Node3 -->
<g id="node4" class="node"><title>Node3</title>
<g id="a_node4"><a xlink:href="de/dc0/class_m_d_s___core_lib_1_1_m_d_s___simulation_module.html" target="_top" xlink:title=" ">
<polygon fill="white" stroke="black" points="180,-44.5 180,-74.5 332,-74.5 332,-44.5 180,-44.5"/>
<text text-anchor="start" x="188" y="-62.5" font-family="Helvetica,sans-Serif" font-size="10.00">MDS_CoreLib.MDS_Simulation</text>
<text text-anchor="middle" x="256" y="-51.5" font-family="Helvetica,sans-Serif" font-size="10.00">Module</text>
</a>
</g>
</g>
<!-- Node0&#45;&gt;Node3 -->
<g id="edge3" class="edge"><title>Node0&#45;&gt;Node3</title>
<path fill="none" stroke="midnightblue" d="M142.461,-72.6695C154.793,-71.2264 167.569,-69.7313 179.892,-68.2892"/>
<polygon fill="midnightblue" stroke="midnightblue" points="141.751,-69.2286 132.226,-73.8672 142.565,-76.1811 141.751,-69.2286"/>
</g>
<!-- Node4 -->
<g id="node5" class="node"><title>Node4</title>
<g id="a_node5"><a xlink:href="d0/d84/class_m_d_s___core_lib_1_1_m_d_s___user_module.html" target="_top" xlink:title=" ">
<polygon fill="white" stroke="black" points="177,-6 177,-25 335,-25 335,-6 177,-6"/>
<text text-anchor="middle" x="256" y="-13" font-family="Helvetica,sans-Serif" font-size="10.00">MDS_CoreLib.MDS_UserModule</text>
</a>
</g>
</g>
<!-- Node0&#45;&gt;Node4 -->
<g id="edge4" class="edge"><title>Node0&#45;&gt;Node4</title>
<path fill="none" stroke="midnightblue" d="M105.015,-61.9862C123.639,-52.9987 146.613,-42.7461 168,-35.5 180.036,-31.422 193.288,-27.9045 205.742,-25.0068"/>
<polygon fill="midnightblue" stroke="midnightblue" points="103.418,-58.8712 95.9761,-66.4126 106.496,-65.1578 103.418,-58.8712"/>
</g>
<!-- Node5 -->
<g id="node6" class="node"><title>Node5</title>
<g id="a_node6"><a xlink:href="da/d0a/class_m_d_s___application_1_1_user_module___s_t_d___i_o.html" target="_top" xlink:title=" ">
<polygon fill="white" stroke="black" points="380,-0.5 380,-30.5 526,-30.5 526,-0.5 380,-0.5"/>
<text text-anchor="start" x="388" y="-18.5" font-family="Helvetica,sans-Serif" font-size="10.00">MDS_Application.UserModule</text>
<text text-anchor="middle" x="453" y="-7.5" font-family="Helvetica,sans-Serif" font-size="10.00">_STD_IO</text>
</a>
</g>
</g>
<!-- Node4&#45;&gt;Node5 -->
<g id="edge5" class="edge"><title>Node4&#45;&gt;Node5</title>
<path fill="none" stroke="midnightblue" d="M345.279,-15.5C356.828,-15.5 368.552,-15.5 379.794,-15.5"/>
<polygon fill="midnightblue" stroke="midnightblue" points="345.19,-12.0001 335.19,-15.5 345.19,-19.0001 345.19,-12.0001"/>
</g>
</g>
</svg>
