<?xml version="1.0" encoding="UTF-8" standalone="no"?>
<!DOCTYPE svg PUBLIC "-//W3C//DTD SVG 1.1//EN"
 "http://www.w3.org/Graphics/SVG/1.1/DTD/svg11.dtd">
<!-- Generated by graphviz version 2.38.0 (20140413.2041)
 -->
<!-- Title: Clean_BaseLib.ISerialValueCollection Pages: 1 -->
<svg width="440pt" height="320pt"
 viewBox="0.00 0.00 440.00 320.00" xmlns="http://www.w3.org/2000/svg" xmlns:xlink="http://www.w3.org/1999/xlink">
<g id="graph0" class="graph" transform="scale(1 1) rotate(0) translate(4 316)">
<title>Clean_BaseLib.ISerialValueCollection</title>
<polygon fill="white" stroke="none" points="-4,4 -4,-316 436,-316 436,4 -4,4"/>
<!-- Node0 -->
<g id="node1" class="node"><title>Node0</title>
<g id="a_node1"><a xlink:title="The interface for packets, headers, and payloads">
<polygon fill="#bfbfbf" stroke="black" points="147.5,-149.5 147.5,-217.5 284.5,-217.5 284.5,-149.5 147.5,-149.5"/>
<text text-anchor="start" x="155.5" y="-205.5" font-family="Helvetica,sans-Serif" font-size="10.00">Clean_BaseLib.ISerialValue</text>
<text text-anchor="middle" x="216" y="-194.5" font-family="Helvetica,sans-Serif" font-size="10.00">Collection</text>
<polyline fill="none" stroke="black" points="147.5,-187.5 284.5,-187.5 "/>
<text text-anchor="start" x="155.5" y="-175.5" font-family="Helvetica,sans-Serif" font-size="10.00">+ SerialValueList</text>
<polyline fill="none" stroke="black" points="147.5,-168.5 284.5,-168.5 "/>
<text text-anchor="middle" x="216" y="-156.5" font-family="Helvetica,sans-Serif" font-size="10.00"> </text>
</a>
</g>
</g>
<!-- Node2 -->
<g id="node3" class="node"><title>Node2</title>
<g id="a_node3"><a xlink:href="class_clean___base_lib_1_1_base_class___packet.html" target="_top" xlink:title="BaseClass_Packet is the abstract packet class implementing the ISerialValueCollection interface.">
<polygon fill="white" stroke="black" points="0,-0.5 0,-112.5 132,-112.5 132,-0.5 0,-0.5"/>
<text text-anchor="start" x="8" y="-100.5" font-family="Helvetica,sans-Serif" font-size="10.00">Clean_BaseLib.BaseClass</text>
<text text-anchor="middle" x="66" y="-89.5" font-family="Helvetica,sans-Serif" font-size="10.00">_Packet</text>
<polyline fill="none" stroke="black" points="0,-82.5 132,-82.5 "/>
<text text-anchor="start" x="8" y="-70.5" font-family="Helvetica,sans-Serif" font-size="10.00">+ Header</text>
<text text-anchor="start" x="8" y="-59.5" font-family="Helvetica,sans-Serif" font-size="10.00">+ Payload</text>
<text text-anchor="start" x="8" y="-48.5" font-family="Helvetica,sans-Serif" font-size="10.00">+ SerialValueList</text>
<text text-anchor="start" x="8" y="-37.5" font-family="Helvetica,sans-Serif" font-size="10.00"># packetHeader</text>
<text text-anchor="start" x="8" y="-26.5" font-family="Helvetica,sans-Serif" font-size="10.00"># packetPayload</text>
<polyline fill="none" stroke="black" points="0,-19.5 132,-19.5 "/>
<text text-anchor="start" x="8" y="-7.5" font-family="Helvetica,sans-Serif" font-size="10.00">+ GetObjectData()</text>
</a>
</g>
</g>
<!-- Node0&#45;&gt;Node2 -->
<g id="edge2" class="edge"><title>Node0&#45;&gt;Node2</title>
<path fill="none" stroke="midnightblue" d="M168.388,-142.823C156.854,-133.212 144.319,-122.766 132.103,-112.585"/>
<polygon fill="none" stroke="midnightblue" points="166.274,-145.617 176.197,-149.33 170.755,-140.24 166.274,-145.617"/>
</g>
<!-- Node3 -->
<g id="node4" class="node"><title>Node3</title>
<g id="a_node4"><a xlink:href="class_clean___base_lib_1_1_base_class___packet_header.html" target="_top" xlink:title="BaseClass_PacketHeader is the abstract header class used for routing and identification of the packet...">
<polygon fill="white" stroke="black" points="150,-22.5 150,-90.5 282,-90.5 282,-22.5 150,-22.5"/>
<text text-anchor="start" x="158" y="-78.5" font-family="Helvetica,sans-Serif" font-size="10.00">Clean_BaseLib.BaseClass</text>
<text text-anchor="middle" x="216" y="-67.5" font-family="Helvetica,sans-Serif" font-size="10.00">_PacketHeader</text>
<polyline fill="none" stroke="black" points="150,-60.5 282,-60.5 "/>
<text text-anchor="start" x="158" y="-48.5" font-family="Helvetica,sans-Serif" font-size="10.00">+ SerialValueList</text>
<polyline fill="none" stroke="black" points="150,-41.5 282,-41.5 "/>
<text text-anchor="start" x="158" y="-29.5" font-family="Helvetica,sans-Serif" font-size="10.00">+ GetObjectData()</text>
</a>
</g>
</g>
<!-- Node0&#45;&gt;Node3 -->
<g id="edge3" class="edge"><title>Node0&#45;&gt;Node3</title>
<path fill="none" stroke="midnightblue" d="M216,-139.222C216,-123.364 216,-105.677 216,-90.8245"/>
<polygon fill="none" stroke="midnightblue" points="212.5,-139.33 216,-149.33 219.5,-139.331 212.5,-139.33"/>
</g>
<!-- Node4 -->
<g id="node5" class="node"><title>Node4</title>
<g id="a_node5"><a xlink:href="class_clean___base_lib_1_1_base_class___packet_payload.html" target="_top" xlink:title="BaseClass_PacketPayload is the abstract payload class used to transfer serialized values through the ...">
<polygon fill="white" stroke="black" points="300,-22.5 300,-90.5 432,-90.5 432,-22.5 300,-22.5"/>
<text text-anchor="start" x="308" y="-78.5" font-family="Helvetica,sans-Serif" font-size="10.00">Clean_BaseLib.BaseClass</text>
<text text-anchor="middle" x="366" y="-67.5" font-family="Helvetica,sans-Serif" font-size="10.00">_PacketPayload</text>
<polyline fill="none" stroke="black" points="300,-60.5 432,-60.5 "/>
<text text-anchor="start" x="308" y="-48.5" font-family="Helvetica,sans-Serif" font-size="10.00">+ SerialValueList</text>
<polyline fill="none" stroke="black" points="300,-41.5 432,-41.5 "/>
<text text-anchor="start" x="308" y="-29.5" font-family="Helvetica,sans-Serif" font-size="10.00">+ GetObjectData()</text>
</a>
</g>
</g>
<!-- Node0&#45;&gt;Node4 -->
<g id="edge4" class="edge"><title>Node0&#45;&gt;Node4</title>
<path fill="none" stroke="midnightblue" d="M263.657,-142.786C283.825,-125.979 307.049,-106.626 326.271,-90.6075"/>
<polygon fill="none" stroke="midnightblue" points="261.245,-140.24 255.803,-149.33 265.726,-145.617 261.245,-140.24"/>
</g>
<!-- Node1 -->
<g id="node2" class="node"><title>Node1</title>
<g id="a_node2"><a xlink:title=" ">
<polygon fill="white" stroke="#bfbfbf" points="181.5,-254.5 181.5,-311.5 250.5,-311.5 250.5,-254.5 181.5,-254.5"/>
<text text-anchor="middle" x="216" y="-299.5" font-family="Helvetica,sans-Serif" font-size="10.00">ISerializable</text>
<polyline fill="none" stroke="#bfbfbf" points="181.5,-292.5 250.5,-292.5 "/>
<text text-anchor="middle" x="216" y="-280.5" font-family="Helvetica,sans-Serif" font-size="10.00"> </text>
<polyline fill="none" stroke="#bfbfbf" points="181.5,-273.5 250.5,-273.5 "/>
<text text-anchor="middle" x="216" y="-261.5" font-family="Helvetica,sans-Serif" font-size="10.00"> </text>
</a>
</g>
</g>
<!-- Node1&#45;&gt;Node0 -->
<g id="edge1" class="edge"><title>Node1&#45;&gt;Node0</title>
<path fill="none" stroke="midnightblue" d="M216,-244.063C216,-235.393 216,-226.243 216,-217.786"/>
<polygon fill="none" stroke="midnightblue" points="212.5,-244.321 216,-254.321 219.5,-244.321 212.5,-244.321"/>
</g>
</g>
</svg>
