<?xml version="1.0" encoding="UTF-8" standalone="no"?>
<!DOCTYPE svg PUBLIC "-//W3C//DTD SVG 1.1//EN"
 "http://www.w3.org/Graphics/SVG/1.1/DTD/svg11.dtd">
<!-- Generated by graphviz version 2.38.0 (20140413.2041)
 -->
<!-- Title: Clean_BaseLib.BaseClass_SerialValue Pages: 1 -->
<svg width="140pt" height="171pt"
 viewBox="0.00 0.00 140.00 171.00" xmlns="http://www.w3.org/2000/svg" xmlns:xlink="http://www.w3.org/1999/xlink">
<g id="graph0" class="graph" transform="scale(1 1) rotate(0) translate(4 167)">
<title>Clean_BaseLib.BaseClass_SerialValue</title>
<polygon fill="white" stroke="none" points="-4,4 -4,-167 136,-167 136,4 -4,4"/>
<!-- Node0 -->
<g id="node1" class="node"><title>Node0</title>
<g id="a_node1"><a xlink:title="BaseClass_SerialValue is the abstract class for values moved in packets">
<polygon fill="#bfbfbf" stroke="black" points="0,-0.5 0,-68.5 132,-68.5 132,-0.5 0,-0.5"/>
<text text-anchor="start" x="8" y="-56.5" font-family="Helvetica,sans-Serif" font-size="10.00">Clean_BaseLib.BaseClass</text>
<text text-anchor="middle" x="66" y="-45.5" font-family="Helvetica,sans-Serif" font-size="10.00">_SerialValue</text>
<polyline fill="none" stroke="black" points="0,-38.5 132,-38.5 "/>
<text text-anchor="middle" x="66" y="-26.5" font-family="Helvetica,sans-Serif" font-size="10.00"> </text>
<polyline fill="none" stroke="black" points="0,-19.5 132,-19.5 "/>
<text text-anchor="start" x="8" y="-7.5" font-family="Helvetica,sans-Serif" font-size="10.00">+ GetObjectData()</text>
</a>
</g>
</g>
<!-- Node1 -->
<g id="node2" class="node"><title>Node1</title>
<g id="a_node2"><a xlink:title=" ">
<polygon fill="white" stroke="#bfbfbf" points="31.5,-105.5 31.5,-162.5 100.5,-162.5 100.5,-105.5 31.5,-105.5"/>
<text text-anchor="middle" x="66" y="-150.5" font-family="Helvetica,sans-Serif" font-size="10.00">ISerializable</text>
<polyline fill="none" stroke="#bfbfbf" points="31.5,-143.5 100.5,-143.5 "/>
<text text-anchor="middle" x="66" y="-131.5" font-family="Helvetica,sans-Serif" font-size="10.00"> </text>
<polyline fill="none" stroke="#bfbfbf" points="31.5,-124.5 100.5,-124.5 "/>
<text text-anchor="middle" x="66" y="-112.5" font-family="Helvetica,sans-Serif" font-size="10.00"> </text>
</a>
</g>
</g>
<!-- Node1&#45;&gt;Node0 -->
<g id="edge1" class="edge"><title>Node1&#45;&gt;Node0</title>
<path fill="none" stroke="midnightblue" d="M66,-95.0631C66,-86.3933 66,-77.2431 66,-68.7855"/>
<polygon fill="none" stroke="midnightblue" points="62.5001,-95.3212 66,-105.321 69.5001,-95.3212 62.5001,-95.3212"/>
</g>
</g>
</svg>
