<?xml version="1.0" encoding="UTF-8" standalone="no"?>
<!DOCTYPE svg PUBLIC "-//W3C//DTD SVG 1.1//EN"
 "http://www.w3.org/Graphics/SVG/1.1/DTD/svg11.dtd">
<!-- Generated by graphviz version 2.38.0 (20140413.2041)
 -->
<!-- Title: Clean_BaseLib.BaseClass_Module Pages: 1 -->
<svg width="724pt" height="353pt"
 viewBox="0.00 0.00 724.00 353.00" xmlns="http://www.w3.org/2000/svg" xmlns:xlink="http://www.w3.org/1999/xlink">
<g id="graph0" class="graph" transform="scale(1 1) rotate(0) translate(4 349)">
<title>Clean_BaseLib.BaseClass_Module</title>
<polygon fill="white" stroke="none" points="-4,4 -4,-349 720,-349 720,4 -4,4"/>
<!-- Node0 -->
<g id="node1" class="node"><title>Node0</title>
<g id="a_node1"><a xlink:title="BaseClass_Module abstract class is the fundamental executional element of the modular clean system.">
<polygon fill="#bfbfbf" stroke="black" points="307,-210.5 307,-344.5 439,-344.5 439,-210.5 307,-210.5"/>
<text text-anchor="start" x="315" y="-332.5" font-family="Helvetica,sans-Serif" font-size="10.00">Clean_BaseLib.BaseClass</text>
<text text-anchor="middle" x="373" y="-321.5" font-family="Helvetica,sans-Serif" font-size="10.00">_Module</text>
<polyline fill="none" stroke="black" points="307,-314.5 439,-314.5 "/>
<text text-anchor="start" x="315" y="-302.5" font-family="Helvetica,sans-Serif" font-size="10.00">+ IsInitialized</text>
<text text-anchor="start" x="315" y="-291.5" font-family="Helvetica,sans-Serif" font-size="10.00">+ ShouldExecute</text>
<text text-anchor="start" x="315" y="-280.5" font-family="Helvetica,sans-Serif" font-size="10.00">+ InitThreadID</text>
<polyline fill="none" stroke="black" points="307,-273.5 439,-273.5 "/>
<text text-anchor="start" x="315" y="-261.5" font-family="Helvetica,sans-Serif" font-size="10.00">+ BaseClass_Module()</text>
<text text-anchor="start" x="315" y="-250.5" font-family="Helvetica,sans-Serif" font-size="10.00">+ BaseClass_Module()</text>
<text text-anchor="start" x="315" y="-239.5" font-family="Helvetica,sans-Serif" font-size="10.00">+ mainInit()</text>
<text text-anchor="start" x="315" y="-228.5" font-family="Helvetica,sans-Serif" font-size="10.00">+ mainLoop()</text>
<text text-anchor="start" x="315" y="-217.5" font-family="Helvetica,sans-Serif" font-size="10.00"># linkModuleExeSys()</text>
</a>
</g>
</g>
<!-- Node1 -->
<g id="node2" class="node"><title>Node1</title>
<g id="a_node2"><a xlink:href="../../d3/dd3/class_m_d_s___core_lib_1_1_m_d_s___code_generation_module.html" target="_top" xlink:title=" ">
<polygon fill="white" stroke="black" points="0,-105.5 0,-173.5 176,-173.5 176,-105.5 0,-105.5"/>
<text text-anchor="start" x="8" y="-161.5" font-family="Helvetica,sans-Serif" font-size="10.00">MDS_CoreLib.MDS_CodeGeneration</text>
<text text-anchor="middle" x="88" y="-150.5" font-family="Helvetica,sans-Serif" font-size="10.00">Module</text>
<polyline fill="none" stroke="black" points="0,-143.5 176,-143.5 "/>
<text text-anchor="middle" x="88" y="-131.5" font-family="Helvetica,sans-Serif" font-size="10.00"> </text>
<polyline fill="none" stroke="black" points="0,-124.5 176,-124.5 "/>
<text text-anchor="middle" x="88" y="-112.5" font-family="Helvetica,sans-Serif" font-size="10.00"> </text>
</a>
</g>
</g>
<!-- Node0&#45;&gt;Node1 -->
<g id="edge1" class="edge"><title>Node0&#45;&gt;Node1</title>
<path fill="none" stroke="midnightblue" d="M297.774,-240.603C254.198,-219.809 199.731,-193.817 157.218,-173.53"/>
<polygon fill="none" stroke="midnightblue" points="296.366,-243.809 306.899,-244.957 299.381,-237.491 296.366,-243.809"/>
</g>
<!-- Node2 -->
<g id="node3" class="node"><title>Node2</title>
<g id="a_node3"><a xlink:href="../../d2/df4/class_m_d_s___core_lib_1_1_m_d_s___sandbox_module.html" target="_top" xlink:title=" ">
<polygon fill="white" stroke="black" points="194,-111 194,-168 370,-168 370,-111 194,-111"/>
<text text-anchor="middle" x="282" y="-156" font-family="Helvetica,sans-Serif" font-size="10.00">MDS_CoreLib.MDS_SandboxModule</text>
<polyline fill="none" stroke="black" points="194,-149 370,-149 "/>
<text text-anchor="middle" x="282" y="-137" font-family="Helvetica,sans-Serif" font-size="10.00"> </text>
<polyline fill="none" stroke="black" points="194,-130 370,-130 "/>
<text text-anchor="middle" x="282" y="-118" font-family="Helvetica,sans-Serif" font-size="10.00"> </text>
</a>
</g>
</g>
<!-- Node0&#45;&gt;Node2 -->
<g id="edge2" class="edge"><title>Node0&#45;&gt;Node2</title>
<path fill="none" stroke="midnightblue" d="M323.233,-202.122C315.167,-190.068 307.281,-178.283 300.602,-168.301"/>
<polygon fill="none" stroke="midnightblue" points="320.363,-204.127 328.833,-210.492 326.181,-200.234 320.363,-204.127"/>
</g>
<!-- Node3 -->
<g id="node4" class="node"><title>Node3</title>
<g id="a_node4"><a xlink:href="../../de/dc0/class_m_d_s___core_lib_1_1_m_d_s___simulation_module.html" target="_top" xlink:title=" ">
<polygon fill="white" stroke="black" points="388,-105.5 388,-173.5 540,-173.5 540,-105.5 388,-105.5"/>
<text text-anchor="start" x="396" y="-161.5" font-family="Helvetica,sans-Serif" font-size="10.00">MDS_CoreLib.MDS_Simulation</text>
<text text-anchor="middle" x="464" y="-150.5" font-family="Helvetica,sans-Serif" font-size="10.00">Module</text>
<polyline fill="none" stroke="black" points="388,-143.5 540,-143.5 "/>
<text text-anchor="middle" x="464" y="-131.5" font-family="Helvetica,sans-Serif" font-size="10.00"> </text>
<polyline fill="none" stroke="black" points="388,-124.5 540,-124.5 "/>
<text text-anchor="middle" x="464" y="-112.5" font-family="Helvetica,sans-Serif" font-size="10.00"> </text>
</a>
</g>
</g>
<!-- Node0&#45;&gt;Node3 -->
<g id="edge3" class="edge"><title>Node0&#45;&gt;Node3</title>
<path fill="none" stroke="midnightblue" d="M422.751,-202.148C429.378,-192.242 435.885,-182.518 441.701,-173.826"/>
<polygon fill="none" stroke="midnightblue" points="419.819,-200.234 417.167,-210.492 425.637,-204.127 419.819,-200.234"/>
</g>
<!-- Node4 -->
<g id="node5" class="node"><title>Node4</title>
<g id="a_node5"><a xlink:href="../../d0/d84/class_m_d_s___core_lib_1_1_m_d_s___user_module.html" target="_top" xlink:title=" ">
<polygon fill="white" stroke="black" points="558,-111 558,-168 716,-168 716,-111 558,-111"/>
<text text-anchor="middle" x="637" y="-156" font-family="Helvetica,sans-Serif" font-size="10.00">MDS_CoreLib.MDS_UserModule</text>
<polyline fill="none" stroke="black" points="558,-149 716,-149 "/>
<text text-anchor="middle" x="637" y="-137" font-family="Helvetica,sans-Serif" font-size="10.00"> </text>
<polyline fill="none" stroke="black" points="558,-130 716,-130 "/>
<text text-anchor="start" x="566" y="-118" font-family="Helvetica,sans-Serif" font-size="10.00">+ MDS_UserModule()</text>
</a>
</g>
</g>
<!-- Node0&#45;&gt;Node4 -->
<g id="edge4" class="edge"><title>Node0&#45;&gt;Node4</title>
<path fill="none" stroke="midnightblue" d="M448.332,-237.693C491.513,-215.448 544.681,-188.058 583.558,-168.031"/>
<polygon fill="none" stroke="midnightblue" points="446.564,-234.666 439.278,-242.357 449.77,-240.889 446.564,-234.666"/>
</g>
<!-- Node5 -->
<g id="node6" class="node"><title>Node5</title>
<g id="a_node6"><a xlink:href="../../da/d0a/class_m_d_s___application_1_1_user_module___s_t_d___i_o.html" target="_top" xlink:title=" ">
<polygon fill="white" stroke="black" points="564,-0.5 564,-68.5 710,-68.5 710,-0.5 564,-0.5"/>
<text text-anchor="start" x="572" y="-56.5" font-family="Helvetica,sans-Serif" font-size="10.00">MDS_Application.UserModule</text>
<text text-anchor="middle" x="637" y="-45.5" font-family="Helvetica,sans-Serif" font-size="10.00">_STD_IO</text>
<polyline fill="none" stroke="black" points="564,-38.5 710,-38.5 "/>
<text text-anchor="middle" x="637" y="-26.5" font-family="Helvetica,sans-Serif" font-size="10.00"> </text>
<polyline fill="none" stroke="black" points="564,-19.5 710,-19.5 "/>
<text text-anchor="start" x="572" y="-7.5" font-family="Helvetica,sans-Serif" font-size="10.00">+ UserModule_STD_IO()</text>
</a>
</g>
</g>
<!-- Node4&#45;&gt;Node5 -->
<g id="edge5" class="edge"><title>Node4&#45;&gt;Node5</title>
<path fill="none" stroke="midnightblue" d="M637,-100.738C637,-90.2318 637,-78.903 637,-68.6812"/>
<polygon fill="none" stroke="midnightblue" points="633.5,-100.898 637,-110.898 640.5,-100.898 633.5,-100.898"/>
</g>
</g>
</svg>
