<?xml version="1.0" encoding="UTF-8" standalone="no"?>
<!DOCTYPE svg PUBLIC "-//W3C//DTD SVG 1.1//EN"
 "http://www.w3.org/Graphics/SVG/1.1/DTD/svg11.dtd">
<!-- Generated by graphviz version 2.38.0 (20140413.2041)
 -->
<!-- Title: MDS_Application.ModuleExecutionSystem_MDS Pages: 1 -->
<svg width="178pt" height="386pt"
 viewBox="0.00 0.00 178.00 386.00" xmlns="http://www.w3.org/2000/svg" xmlns:xlink="http://www.w3.org/1999/xlink">
<g id="graph0" class="graph" transform="scale(1 1) rotate(0) translate(4 382)">
<title>MDS_Application.ModuleExecutionSystem_MDS</title>
<polygon fill="white" stroke="none" points="-4,4 -4,-382 174,-382 174,4 -4,4"/>
<!-- Node0 -->
<g id="node1" class="node"><title>Node0</title>
<g id="a_node1"><a xlink:title=" ">
<polygon fill="#bfbfbf" stroke="black" points="0,-0.5 0,-68.5 170,-68.5 170,-0.5 0,-0.5"/>
<text text-anchor="start" x="8" y="-56.5" font-family="Helvetica,sans-Serif" font-size="10.00">MDS_Application.ModuleExecution</text>
<text text-anchor="middle" x="85" y="-45.5" font-family="Helvetica,sans-Serif" font-size="10.00">System_MDS</text>
<polyline fill="none" stroke="black" points="0,-38.5 170,-38.5 "/>
<text text-anchor="middle" x="85" y="-26.5" font-family="Helvetica,sans-Serif" font-size="10.00"> </text>
<polyline fill="none" stroke="black" points="0,-19.5 170,-19.5 "/>
<text text-anchor="middle" x="85" y="-7.5" font-family="Helvetica,sans-Serif" font-size="10.00"> </text>
</a>
</g>
</g>
<!-- Node1 -->
<g id="node2" class="node"><title>Node1</title>
<g id="a_node2"><a xlink:href="../../dc/dd3/class_m_d_s___core_lib_1_1_m_d_s___execution_system.html" target="_top" xlink:title=" ">
<polygon fill="white" stroke="black" points="8.5,-105.5 8.5,-184.5 161.5,-184.5 161.5,-105.5 8.5,-105.5"/>
<text text-anchor="start" x="16.5" y="-172.5" font-family="Helvetica,sans-Serif" font-size="10.00">MDS_CoreLib::MDS_Execution</text>
<text text-anchor="middle" x="85" y="-161.5" font-family="Helvetica,sans-Serif" font-size="10.00">System</text>
<polyline fill="none" stroke="black" points="8.5,-154.5 161.5,-154.5 "/>
<text text-anchor="start" x="16.5" y="-142.5" font-family="Helvetica,sans-Serif" font-size="10.00"># userModule</text>
<text text-anchor="start" x="16.5" y="-131.5" font-family="Helvetica,sans-Serif" font-size="10.00"># sandBoxModule</text>
<polyline fill="none" stroke="black" points="8.5,-124.5 161.5,-124.5 "/>
<text text-anchor="middle" x="85" y="-112.5" font-family="Helvetica,sans-Serif" font-size="10.00"> </text>
</a>
</g>
</g>
<!-- Node1&#45;&gt;Node0 -->
<g id="edge1" class="edge"><title>Node1&#45;&gt;Node0</title>
<path fill="none" stroke="midnightblue" d="M85,-95.3492C85,-86.2824 85,-77.0048 85,-68.5439"/>
<polygon fill="none" stroke="midnightblue" points="81.5001,-95.4414 85,-105.441 88.5001,-95.4415 81.5001,-95.4414"/>
</g>
<!-- Node2 -->
<g id="node3" class="node"><title>Node2</title>
<g id="a_node3"><a xlink:href="../../da/dbd/class_clean___base_lib_1_1_base_class___module_execution_system.html" target="_top" xlink:title="Abstract class defining core modular and clean concepts">
<polygon fill="white" stroke="black" points="7,-221.5 7,-377.5 163,-377.5 163,-221.5 7,-221.5"/>
<text text-anchor="start" x="15" y="-365.5" font-family="Helvetica,sans-Serif" font-size="10.00">Clean_BaseLib::BaseClass</text>
<text text-anchor="middle" x="85" y="-354.5" font-family="Helvetica,sans-Serif" font-size="10.00">_ModuleExecutionSystem</text>
<polyline fill="none" stroke="black" points="7,-347.5 163,-347.5 "/>
<text text-anchor="start" x="15" y="-335.5" font-family="Helvetica,sans-Serif" font-size="10.00">+ configured_failcount</text>
<text text-anchor="start" x="15" y="-324.5" font-family="Helvetica,sans-Serif" font-size="10.00">+ configured_ms_mainWD</text>
<text text-anchor="start" x="15" y="-313.5" font-family="Helvetica,sans-Serif" font-size="10.00">+ configured_ms_exeLoopSleep</text>
<text text-anchor="start" x="15" y="-302.5" font-family="Helvetica,sans-Serif" font-size="10.00">+ Threads</text>
<text text-anchor="start" x="15" y="-291.5" font-family="Helvetica,sans-Serif" font-size="10.00">+ CoreModules</text>
<polyline fill="none" stroke="black" points="7,-284.5 163,-284.5 "/>
<text text-anchor="start" x="15" y="-272.5" font-family="Helvetica,sans-Serif" font-size="10.00">+ BaseClass_ModuleExecution</text>
<text text-anchor="start" x="15" y="-261.5" font-family="Helvetica,sans-Serif" font-size="10.00">System()</text>
<text text-anchor="start" x="15" y="-250.5" font-family="Helvetica,sans-Serif" font-size="10.00">+ Execute()</text>
<text text-anchor="start" x="15" y="-239.5" font-family="Helvetica,sans-Serif" font-size="10.00">+ linkModuleObj()</text>
<text text-anchor="start" x="15" y="-228.5" font-family="Helvetica,sans-Serif" font-size="10.00">+ ApplicationExceptionHandler()</text>
</a>
</g>
</g>
<!-- Node2&#45;&gt;Node1 -->
<g id="edge2" class="edge"><title>Node2&#45;&gt;Node1</title>
<path fill="none" stroke="midnightblue" d="M85,-211.264C85,-202.019 85,-192.993 85,-184.747"/>
<polygon fill="none" stroke="midnightblue" points="81.5001,-211.356 85,-221.356 88.5001,-211.356 81.5001,-211.356"/>
</g>
</g>
</svg>
